<?xml version="1.0" standalone="no"?>
<!DOCTYPE svg PUBLIC "-//W3C//DTD SVG 1.1//EN" "http://www.w3.org/Graphics/SVG/1.1/DTD/svg11.dtd" >
<svg xmlns="http://www.w3.org/2000/svg">
<metadata></metadata>
<defs>
<font id="adumaheavy" horiz-adv-x="1000" >
<font-face units-per-em="1000" ascent="700" descent="-300" />
<missing-glyph horiz-adv-x="235" />
<glyph unicode=" "  horiz-adv-x="235" />
<glyph unicode="&#x09;" horiz-adv-x="235" />
<glyph unicode="&#xa0;" horiz-adv-x="235" />
<glyph unicode="!" horiz-adv-x="290" d="M240 303l-38 -96h-104l-38 96v250h180v-250zM235 0h-170v161h170v-161z" />
<glyph unicode="&#x22;" horiz-adv-x="415" d="M365 407l-140 -54v245h140v-191zM190 407l-140 -54v245h140v-191z" />
<glyph unicode="#" horiz-adv-x="640" d="M600 467l-25 -136h-63l-15 -84h59l-22 -137h-61l-20 -110h-163l21 110h-55l-20 -110h-168l19 110h-67l22 137h70l15 84h-65l22 136h67l17 86h167l-15 -86h54l15 86h163l-15 -86h63zM350 331h-54l-16 -84h55z" />
<glyph unicode="$" horiz-adv-x="490" d="M455 145q0 -58 -40 -97.5t-106 -57.5v-90h-130v90q-142 39 -144 178v17h178v-7q0 -19 11 -27t21 -8q8 0 14 4t6 8q0 14 -33.5 38t-74 49t-74 67.5t-33.5 88.5q0 55 36 99.5t93 62.5v68h130v-67q41 0 86 -43t45 -118h-165v3q0 11 -8.5 19t-19.5 8q-16 0 -16 -15 q0 -9 25 -29l129 -97q43 -33 56.5 -68t13.5 -76z" />
<glyph unicode="%" horiz-adv-x="544" d="M227 398q0 -32 -26.5 -54t-61.5 -22q-36 0 -62.5 22t-26.5 54v86q0 32 26.5 54t62.5 22q35 0 61.5 -22t26.5 -54v-86zM465 554l-215 -554h-158l215 554h158zM504 68q0 -32 -26.5 -54.5t-62.5 -22.5q-35 0 -61.5 22.5t-26.5 54.5v85q0 32 26.5 54.5t61.5 22.5 q36 0 62.5 -22.5t26.5 -54.5v-85zM152 423v36q0 23 -8 25q-2 1 -5 1q-5 0 -8.5 -1.5t-4.5 -6.5t-1 -7v-11v-36v-3q5 -21 14 -23q5 0 8 1.5t4 6.5t1 7v11zM429 93v35q0 23 -7 26q-3 1 -7 1q-7 0 -10 -4t-3 -8v-15v-35v-3q0 -9 0.5 -13t3.5 -7.5t9 -3.5q7 0 10 4t3.5 8t0.5 15 z" />
<glyph unicode="&#x26;" horiz-adv-x="554" d="M293 126q-60 50 -102 111q-35 -30 -35 -62q0 -28 22.5 -49.5t52.5 -21.5q34 0 62 22zM271 472q0 23 -10.5 36.5t-29.5 13.5q-14 0 -26.5 -14t-12.5 -38q0 -39 23 -80q56 43 56 82zM526 -8q-50 0 -78.5 10.5t-73.5 47.5q-59 -58 -147 -58q-87 0 -140.5 45t-53.5 133 q0 91 92 155q-45 68 -45 138q0 65 44 105t112 40q61 0 104 -40.5t43 -99.5q0 -36 -17.5 -68t-36.5 -50t-54 -46q45 -60 87 -98q29 46 50 106l106 -29q-36 -97 -70 -147q36 -31 78 -32v-112z" />
<glyph unicode="'" horiz-adv-x="240" d="M190 407l-140 -54v245h140v-191z" />
<glyph unicode="(" horiz-adv-x="366" d="M316 -74h-186q-9 24 -22.5 62.5t-35.5 132t-22 156.5q0 62 20 149.5t40 143.5l20 57h185q-86 -232 -86 -350q0 -54 16 -124t28.5 -108t42.5 -119z" />
<glyph unicode=")" horiz-adv-x="366" d="M316 277q0 -63 -20 -150.5t-40 -144.5l-20 -56h-186q30 81 42.5 119t28.5 108t16 124q0 118 -86 350h185q9 -24 22.5 -62.5t35.5 -132t22 -155.5z" />
<glyph unicode="*" horiz-adv-x="332" d="M282 463l-38 -65l-46 43l5 -67h-74l5 67l-46 -43l-38 65l61 23l-61 24l38 65l46 -44l-5 68h74l-5 -68l46 44l38 -65l-61 -24z" />
<glyph unicode="+" horiz-adv-x="470" d="M420 216h-113v-102h-145v102h-112v145h112v103h145v-102h113v-146z" />
<glyph unicode="," horiz-adv-x="240" d="M190 -50l-140 -50v253h140v-203z" />
<glyph unicode="-" horiz-adv-x="455" d="M405 226h-355v126h355v-126z" />
<glyph unicode="." horiz-adv-x="240" d="M190 0h-140v153h140v-153z" />
<glyph unicode="/" horiz-adv-x="342" d="M347 627l-172 -727h-180l172 727h180z" />
<glyph unicode="0" horiz-adv-x="512" d="M462 180q0 -87 -61 -136t-145 -49t-145 49t-61 136v203q0 87 61 135.5t145 48.5t145 -48.5t61 -135.5v-203zM287 174v214q0 16 -9.5 23.5t-21.5 7.5t-21.5 -7.5t-9.5 -23.5v-214q0 -30 31 -30t31 30z" />
<glyph unicode="1" horiz-adv-x="340" d="M290 0h-180v346l-75 -51v167l123 91h132v-553z" />
<glyph unicode="2" horiz-adv-x="502" d="M452 0h-412v139l211 210q26 27 26 40t-8.5 21.5t-21.5 8.5q-32 0 -32 -55h-175q0 99 59.5 151t147.5 52q89 0 147 -48.5t58 -130.5q0 -44 -18 -73.5t-58 -69.5l-95 -92h171v-153z" />
<glyph unicode="3" horiz-adv-x="515" d="M465 177q0 -88 -62.5 -135t-150.5 -47q-40 0 -76 11t-67.5 34t-50 65t-18.5 98h175q0 -59 37 -59q16 0 27 10t11 27v25q0 22 -12 31.5t-28 9.5h-1v80h1q34 0 34 32v28q0 13 -10.5 22.5t-21.5 9.5q-13 0 -25 -13.5t-12 -40.5h-169q0 97 59 149.5t147 52.5t147.5 -49.5 t59.5 -126.5q0 -63 -44 -101q50 -44 50 -113z" />
<glyph unicode="4" horiz-adv-x="534" d="M494 108h-42v-108h-173v108h-244v142l116 312h188l-106 -295h46v68h173v-68h42v-159z" />
<glyph unicode="5" horiz-adv-x="485" d="M450 163q0 -72 -61 -120t-144 -48q-88 0 -144 55.5t-56 111.5h174q0 -2 2 -6t9 -8.5t17 -4.5q33 0 33 56t-33 56q-24 0 -35 -37h-161v345h384v-162h-218v-41q2 0 10.5 3.5t19 5t26.5 1.5q67 0 122 -43t55 -113v-51z" />
<glyph unicode="6" horiz-adv-x="494" d="M459 184q0 -89 -61.5 -139t-150.5 -50t-150.5 50t-61.5 139q0 11 1.5 22t3.5 20t6.5 21.5t7 19.5t9 20.5t8.5 18.5t10 20.5t10 18.5l115 217h198l-109 -199q65 -4 114.5 -52.5t49.5 -126.5zM284 184q0 19 -11.5 30t-25.5 11t-25.5 -11t-11.5 -30q0 -18 11.5 -29t25.5 -11 t25.5 11t11.5 29z" />
<glyph unicode="7" horiz-adv-x="486" d="M461 428l-184 -428h-196l176 409h-59v-51h-173v204h436v-134z" />
<glyph unicode="8" horiz-adv-x="498" d="M463 177q0 -88 -61.5 -135t-152.5 -47t-152.5 47t-61.5 135q0 67 51 112q-45 45 -45 102q0 81 61.5 128.5t146.5 47.5t146.5 -47.5t61.5 -128.5q0 -57 -45 -102q51 -45 51 -112zM283 377q0 18 -10.5 30t-23.5 12t-23.5 -12t-10.5 -30q0 -17 10.5 -29t23.5 -12t23.5 12 t10.5 29zM288 195q0 22 -12.5 37t-26.5 15q-15 0 -27 -14t-12 -38q0 -22 12 -36.5t27 -14.5t27 14t12 37z" />
<glyph unicode="9" horiz-adv-x="495" d="M460 378q0 -9 -1 -18.5t-3.5 -19.5t-4 -17.5t-6.5 -19t-7 -17t-8 -18t-8 -16.5t-9.5 -18t-8.5 -16l-115 -218h-199l110 199q-65 5 -115 53t-50 126q0 89 61.5 139t150.5 50t151 -50t62 -139zM285 378q0 18 -12 29.5t-26 11.5t-25.5 -11.5t-11.5 -29.5t11.5 -29.5 t25.5 -11.5t26 11.5t12 29.5z" />
<glyph unicode=":" horiz-adv-x="240" d="M190 260h-140v153h140v-153zM190 0h-140v153h140v-153z" />
<glyph unicode=";" horiz-adv-x="240" d="M190 260h-140v153h140v-153zM190 -50l-140 -50v253h140v-203z" />
<glyph unicode="&#x3c;" horiz-adv-x="626" d="M591 202h-284l100 -100h-211l-176 174l175 176h212l-100 -100h284v-150z" />
<glyph unicode="=" horiz-adv-x="455" d="M405 316h-355v126h355v-126zM405 136h-355v126h355v-126z" />
<glyph unicode="&#x3e;" horiz-adv-x="626" d="M606 276l-176 -174h-211l100 99h-284v150h284l-100 101h212z" />
<glyph unicode="?" horiz-adv-x="420" d="M405 391q0 -58 -50 -108l-59 -60l-1 -26h-170v87l95 95q5 5 5 12q0 6 -6 11t-15 5q-19 0 -19 -20v-11h-180v11q0 75 58 125.5t141 50.5q82 0 141.5 -50t59.5 -122zM295 0h-170v161h170v-161z" />
<glyph unicode="@" horiz-adv-x="664" d="M392 306q0 25 -14.5 40.5t-37.5 15.5q-31 0 -52.5 -24.5t-21.5 -60.5q0 -26 14 -42t37 -16q32 0 53.5 26t21.5 61zM626 355q0 -52 -17 -95t-41.5 -69t-54.5 -44t-54 -25t-41 -7q-38 0 -49 32q-36 -32 -73 -32q-55 0 -96 45t-41 105q0 79 47.5 139t123.5 60q56 0 89 -37 l6 28h91l-45 -222q-2 -8 -2 -13q0 -8 2 -8q25 0 47 31.5t22 89.5q0 87 -53.5 137.5t-144.5 50.5q-92 0 -148.5 -62.5t-56.5 -159.5q0 -100 60.5 -160t157.5 -60q85 0 151 56h94q-99 -143 -251 -143q-130 0 -221 87.5t-91 219.5q0 130 90 219.5t218 89.5q112 0 196.5 -70.5 t84.5 -182.5z" />
<glyph unicode="A" horiz-adv-x="507" d="M309 236l-53 208l-56 -208h109zM499 0h-129l-32 125h-167l-34 -125h-129l171 600h152z" />
<glyph unicode="B" horiz-adv-x="554" d="M375 184q0 75 -82 75h-100v-150h100q43 0 62.5 18.5t19.5 56.5zM362 429q0 27 -17.5 44t-51.5 17h-100v-122h100q34 0 51.5 17t17.5 44zM504 162q0 -75 -55 -118.5t-164 -43.5h-220v599h222q199 0 204 -151q3 -91 -73 -132q48 -23 67 -57t19 -97z" />
<glyph unicode="C" horiz-adv-x="507" d="M492 160q-57 -168 -227 -168q-115 0 -177.5 81t-62.5 227q0 145 62.5 226.5t177.5 81.5q86 0 138 -41.5t75 -128.5l-118 -28q-28 85 -98 85q-50 0 -78.5 -48.5t-29.5 -146.5q-1 -196 111 -196q36 0 59 18t48 70z" />
<glyph unicode="D" horiz-adv-x="554" d="M403 300q0 86 -32.5 136.5t-113.5 50.5h-63v-374h63q81 0 113.5 50t32.5 137zM532 300q0 -152 -72 -226t-195 -74h-200v599h200q124 0 195.5 -74t71.5 -225z" />
<glyph unicode="E" horiz-adv-x="507" d="M476 0h-406v599h397v-112h-269v-119h195v-113h-195v-142h278v-113z" />
<glyph unicode="F" horiz-adv-x="461" d="M447 487h-254v-119h190v-113h-190v-255h-128v599h382v-112z" />
<glyph unicode="G" horiz-adv-x="554" d="M502 0h-99v45q-56 -53 -140 -53q-118 0 -178 83t-60 216q0 60 12.5 113t39.5 100.5t77.5 75.5t119.5 28q169 0 221 -165l-119 -32q-22 47 -46.5 65.5t-63.5 18.5q-54 0 -83 -52t-29 -149q0 -90 30.5 -140t81.5 -50q46 0 75.5 26.5t34.5 69.5h-108v113h234v-313z" />
<glyph unicode="H" horiz-adv-x="599" d="M530 0h-129v249h-202v-249h-129v599h129v-231h202v231h129v-599z" />
<glyph unicode="I" horiz-adv-x="295" d="M215 0h-135v599h135v-599z" />
<glyph unicode="J" horiz-adv-x="369" d="M299 166q0 -85 -41 -129.5t-120 -44.5q-89 0 -145 90l89 69q16 -29 28 -38t28 -9q35 0 35 60v435h126v-433z" />
<glyph unicode="K" horiz-adv-x="554" d="M545 0h-144l-138 268l-69 -87v-181h-129v599h129v-238l177 238h151l-171 -228z" />
<glyph unicode="L" horiz-adv-x="461" d="M440 0h-375v599h127v-486h248v-113z" />
<glyph unicode="M" horiz-adv-x="691" d="M624 0h-115v402l-115 -402h-98l-113 402v-402h-116v599h173l105 -381l105 381h174v-599z" />
<glyph unicode="N" horiz-adv-x="599" d="M532 0h-121l-221 389v-389h-123v599h130l212 -371v371h123v-599z" />
<glyph unicode="O" horiz-adv-x="554" d="M398 300q0 101 -30 148t-92 47q-121 0 -122 -195q0 -101 30 -148.5t92 -47.5t92 47.5t30 148.5zM528 300q0 -146 -65 -227t-187 -81t-186.5 81t-64.5 227t64.5 227t186.5 81t187 -81t65 -227z" />
<glyph unicode="P" horiz-adv-x="507" d="M359 417q0 37 -20.5 55t-75.5 18h-78v-146h78q55 0 75.5 18t20.5 55zM487 417q0 -93 -56 -137.5t-156 -44.5h-90v-235h-129v599h219q100 0 156 -44.5t56 -137.5z" />
<glyph unicode="Q" horiz-adv-x="554" d="M399 299q0 196 -122 196t-123 -196q0 -101 30 -148.5t93 -47.5q31 0 55 13q-25 31 -65 40v118q81 -9 124 -63q8 38 8 88zM544 -45q-60 0 -85.5 11.5t-61.5 50.5q-49 -26 -120 -26q-122 0 -187 81t-65 227t65 227.5t187 81.5t186.5 -81.5t64.5 -227.5q0 -133 -53 -212 q23 -18 69 -19v-113z" />
<glyph unicode="R" horiz-adv-x="554" d="M368 418q0 72 -84 72h-90v-145h71q59 0 81 17.5t22 55.5zM524 0h-143l-109 236h-78v-236h-129v599h238q97 0 145 -50.5t48 -130.5q1 -55 -25 -96t-76 -59z" />
<glyph unicode="S" horiz-adv-x="507" d="M464 180q0 -93 -55 -140.5t-155 -47.5q-75 0 -137 40.5t-90 111.5l107 48q24 -49 51 -71.5t69 -22.5q88 0 88 67q0 20 -17 37.5t-31.5 24.5t-39.5 18q-6 3 -37 15.5t-42 17.5t-37 18.5t-37.5 25.5t-26.5 29t-21 38t-6 46q0 80 56.5 126.5t137.5 46.5q73 0 129.5 -37.5 t85.5 -109.5l-118 -37q-29 77 -97 77q-72 0 -72 -54q0 -26 41 -49q16 -9 53 -23.5t47 -19.5q70 -28 112 -67.5t42 -107.5z" />
<glyph unicode="T" horiz-adv-x="461" d="M445 488h-150v-488h-129v488h-149v112h428v-112z" />
<glyph unicode="U" horiz-adv-x="599" d="M530 226q0 -64 -18.5 -110.5t-51.5 -73t-73 -38.5t-87 -12q-101 0 -165.5 55.5t-64.5 178.5v373h129v-377q0 -66 24 -92t77 -26t77 26t24 92v377h129v-373z" />
<glyph unicode="V" horiz-adv-x="461" d="M456 599l-157 -599h-137l-157 599h128l96 -400l99 400h128z" />
<glyph unicode="W" horiz-adv-x="691" d="M676 599l-125 -599h-128l-78 378l-76 -378h-129l-126 599h124l67 -355l75 355h130l70 -355l72 355h124z" />
<glyph unicode="X" horiz-adv-x="461" d="M461 0h-141l-89 184l-90 -184h-141l160 307l-150 292h141l80 -166l80 166h141l-151 -292z" />
<glyph unicode="Y" horiz-adv-x="461" d="M459 599l-164 -360v-239h-129v239l-163 360h136l92 -215l92 215h136z" />
<glyph unicode="Z" horiz-adv-x="461" d="M440 0h-427v107l259 380h-240v112h406v-101l-268 -385h270v-113z" />
<glyph unicode="[" horiz-adv-x="330" d="M295 546h-76v-556h76v-157h-245v870h245v-157z" />
<glyph unicode="\" horiz-adv-x="342" d="M167 -100l-172 727h180l172 -727h-180z" />
<glyph unicode="]" horiz-adv-x="330" d="M280 -167h-245v157h76v556h-76v157h245v-870z" />
<glyph unicode="^" horiz-adv-x="498" d="M446 288h-108l-89 192l-89 -192h-107l151 311h90z" />
<glyph unicode="_" horiz-adv-x="415" d="M415 -104h-415v42h415v-42z" />
<glyph unicode="`" horiz-adv-x="231" d="M183 486h-85l-121 122h128z" />
<glyph unicode="a" horiz-adv-x="415" d="M249 123v72q-23 -4 -36 -7.5t-36 -11.5t-34.5 -21.5t-11.5 -31.5q0 -39 38 -39q35 0 80 39zM365 0h-112v27q-56 -35 -118 -35q-57 0 -88.5 35t-31.5 84q0 74 58.5 114.5t175.5 55.5v27q0 18 -13.5 29t-36.5 11q-29 0 -48.5 -13.5t-39.5 -41.5l-77 59q23 40 70 64.5 t95 23.5q88 -2 127 -41.5t39 -135.5v-263z" />
<glyph unicode="b" horiz-adv-x="461" d="M318 218q0 127 -82 127q-34 0 -66 -30v-192q3 -3 10 -9t10 -8l9 -6t10.5 -5.5t11.5 -2.5t15 -1q39 0 60.5 32t21.5 95zM435 230q0 -104 -45 -171t-129 -67q-56 0 -106 44l-8 -36h-94v599h117v-188q42 34 91 34q81 0 127.5 -65t46.5 -150z" />
<glyph unicode="c" horiz-adv-x="415" d="M383 108q-33 -63 -74.5 -90t-101.5 -26q-88 0 -137.5 61t-49.5 163t50 163t137 61q62 0 107.5 -32.5t65.5 -93.5l-98 -38q-16 35 -31 50t-44 15q-71 0 -71 -125q0 -67 18.5 -96.5t55.5 -29.5q26 0 45 17t38 53z" />
<glyph unicode="d" horiz-adv-x="461" d="M292 123v192q-34 30 -67 30q-82 0 -82 -127q0 -63 21.5 -95t60.5 -32q8 0 15.5 1.5t11.5 2.5t10.5 5t9 6t10.5 8.5t10 8.5zM408 0h-100l-4 34q-48 -42 -104 -42q-84 0 -128.5 67t-44.5 171q0 85 46.5 150t126.5 65q50 0 92 -34v188h116v-599z" />
<glyph unicode="e" horiz-adv-x="415" d="M274 276q-3 35 -21 53.5t-47 18.5q-30 0 -48 -18.5t-21 -53.5h137zM387 88q-33 -51 -77.5 -73.5t-107.5 -22.5q-84 0 -133 61t-49 163t49.5 162.5t137.5 61.5q82 0 129 -59t47 -141v-50h-246q3 -53 23.5 -76.5t51.5 -23.5q29 0 47 11.5t42 40.5z" />
<glyph unicode="f" horiz-adv-x="276" d="M260 337h-81v-337h-114v337h-55v100h55v42q0 70 29 99.5t93 29.5h72v-100h-35q-27 0 -36 -7.5t-9 -27.5v-36h81v-100z" />
<glyph unicode="g" horiz-adv-x="415" d="M294 -36q0 6 -7.5 14t-35.5 16.5t-72 8.5q-32 0 -46 -13t-14 -26q0 -18 20.5 -27t79.5 -9q27 0 45.5 8t24 15.5t5.5 12.5zM255 287q0 25 -17 42.5t-41 17.5q-27 0 -44 -17.5t-17 -42.5t17 -42t44 -17q24 0 41 17t17 42zM405 353q-48 0 -59 -4q18 -29 18 -70 q0 -65 -43 -104.5t-121 -39.5h-15h-15h-12t-11 -1t-8 -3t-5.5 -5t-1.5 -7q0 -13 34 -18q15 -2 48.5 -4t44.5 -3q63 -6 103.5 -31t40.5 -87q0 -55 -53 -94.5t-147 -39.5q-87 0 -140 27.5t-53 82.5q0 63 56 82q-43 22 -43 64q0 47 56 79q-52 47 -52 108q0 63 45.5 109 t125.5 46q55 0 100 -33q30 34 107 33v-87z" />
<glyph unicode="h" horiz-adv-x="461" d="M408 0h-116v281q0 38 -10 51t-31 13q-48 0 -82 -38v-307h-116v599h116v-197q57 43 109 43q64 0 97 -40.5t33 -108.5v-296z" />
<glyph unicode="i" horiz-adv-x="249" d="M186 0h-123v437h123v-437zM186 495h-123v113h123v-113z" />
<glyph unicode="j" horiz-adv-x="241" d="M198 -27q0 -72 -31 -106.5t-97 -34.5q-26 0 -67 11v119q40 -4 50 -4q15 0 15 32v446h130v-463zM198 494h-130v114h130v-114z" />
<glyph unicode="k" horiz-adv-x="415" d="M419 0h-125l-87 179l-37 -44v-135h-117v599h117v-309l109 147h136l-129 -167z" />
<glyph unicode="l" horiz-adv-x="249" d="M186 0h-123v599h123v-599z" />
<glyph unicode="m" horiz-adv-x="691" d="M637 0h-118v298q0 43 -41 43q-29 1 -73 -39v-302h-119v298q0 43 -40 43q-30 1 -74 -39v-302h-119v432h110v-33q52 41 116 41q71 0 105 -54q59 54 141 54q44 0 78 -31.5t34 -102.5v-306z" />
<glyph unicode="n" horiz-adv-x="461" d="M408 0h-116v278q0 37 -10 50t-31 13q-47 0 -82 -37v-304h-116v432h109v-36q66 44 116 44q64 0 97 -40t33 -108v-292z" />
<glyph unicode="o" horiz-adv-x="415" d="M278 216q0 67 -17.5 96t-52.5 29q-36 0 -53.5 -29t-17.5 -96t17.5 -96.5t53.5 -29.5q70 0 70 126zM395 216q0 -102 -50 -163t-137 -61q-88 0 -138 61t-50 163t50 163t138 61q87 0 137 -61t50 -163z" />
<glyph unicode="p" horiz-adv-x="461" d="M318 213q0 127 -82 127q-10 0 -17 -1t-14.5 -5.5t-10.5 -6t-12.5 -9.5t-11.5 -10v-192q33 -29 66 -29q82 0 82 126zM435 202q0 -85 -46.5 -150t-127.5 -65q-49 0 -91 34v-179h-117v590h113v-27q43 35 95 35q84 0 129 -67t45 -171z" />
<glyph unicode="q" horiz-adv-x="461" d="M292 116v192q-3 2 -9 7.5t-8.5 7.5t-7.5 5.5t-8.5 5t-9 3.5t-11.5 2.5t-13 0.5q-82 0 -82 -127q0 -126 82 -126q33 0 67 29zM408 -158h-116v179q-42 -34 -92 -34q-80 0 -126.5 65t-46.5 150q0 104 44.5 171t128.5 67q56 0 106 -45l9 37h93v-590z" />
<glyph unicode="r" horiz-adv-x="276" d="M264 315q-15 3 -26 3q-19 0 -39 -14t-30 -27t-10 -17v-260h-113v432h105v-48q37 55 113 56v-125z" />
<glyph unicode="s" horiz-adv-x="369" d="M340 125q0 -66 -44 -99.5t-114 -33.5q-103 0 -167 95l80 60q45 -63 92 -63q22 0 35.5 10.5t13.5 26.5t-27 31q-11 6 -37.5 15.5t-31.5 11.5q-49 20 -78.5 49.5t-29.5 81.5q0 61 42.5 95.5t101.5 34.5q94 0 156 -73l-74 -67q-45 48 -76 48q-45 0 -45 -31q0 -17 27 -30 q8 -4 19 -8.5t26 -9.5t24 -9q48 -19 77.5 -49.5t29.5 -85.5z" />
<glyph unicode="t" horiz-adv-x="276" d="M257 -1q-59 -7 -84 -7q-108 0 -108 106v239h-55v99h55v138h114v-138h78v-99h-78v-226q0 -12 5 -16t20 -4q9 0 53 11v-103z" />
<glyph unicode="u" horiz-adv-x="461" d="M408 0h-108v36q-63 -44 -116 -44q-65 0 -98 39.5t-33 107.5v293h116v-278q0 -37 10 -50.5t31 -13.5q46 0 82 38v304h116v-432z" />
<glyph unicode="v" horiz-adv-x="369" d="M363 432l-122 -432h-117l-119 432h118l61 -253l62 253h117z" />
<glyph unicode="w" horiz-adv-x="554" d="M548 432l-112 -432h-105l-55 228l-54 -228h-104l-112 432h114l50 -227l53 227h108l50 -227l53 227h114z" />
<glyph unicode="x" horiz-adv-x="369" d="M372 0h-126l-62 118l-61 -118h-126l125 224l-121 208h130l52 -103l52 103h128l-121 -208z" />
<glyph unicode="y" horiz-adv-x="369" d="M364 432l-132 -431q-28 -91 -64.5 -125t-102.5 -34q-22 0 -57 5v102q26 -5 51 -5q30 0 43.5 11.5t23.5 40.5q3 9 3 20q0 5 -12 47l-113 369h118l62 -233l63 233h117z" />
<glyph unicode="z" horiz-adv-x="369" d="M354 0h-339v83l187 250h-171v99h321v-83l-186 -251h188v-98z" />
<glyph unicode="{" horiz-adv-x="379" d="M344 -168h-110q-56 0 -95.5 36.5t-39.5 88.5v251q0 5 -4.5 9t-10.5 4h-59v157h59q6 0 10.5 4t4.5 9v187q0 52 39.5 88.5t95.5 36.5h110v-157h-75v-194q0 -9 -5.5 -18.5t-10.5 -14.5t-14 -12t-10 -8l11 -11t11.5 -12t8.5 -11t7 -14.5t2 -15.5v-245h75v-158z" />
<glyph unicode="|" horiz-adv-x="280" d="M230 -150h-180v853h180v-853z" />
<glyph unicode="}" horiz-adv-x="379" d="M354 221h-59q-6 0 -10.5 -4t-4.5 -9v-251q0 -52 -39.5 -88.5t-95.5 -36.5h-110v158h75v244q0 9 2 16t7 14.5t8.5 11.5t11.5 12l11 11q-1 1 -10 8t-14 12t-10.5 14.5t-5.5 18.5v194h-75v157h110q56 0 95.5 -36.5t39.5 -88.5v-187q0 -5 4.5 -9t10.5 -4h59v-157z" />
<glyph unicode="~" horiz-adv-x="498" d="M441 215q-17 -23 -28.5 -35.5t-34.5 -24.5t-50 -12q-31 0 -80.5 25.5t-83.5 25.5q-22 0 -37 -15.5t-33 -51.5l-37 89q38 72 108 72q21 0 43.5 -7t52 -19.5t41.5 -16.5q18 -7 31 -7q14 0 26.5 9t21 19.5t24.5 34.5z" />
<glyph unicode="&#xa1;" horiz-adv-x="276" d="M201 -149h-124l19 403h85zM196 316h-115v134h115v-134z" />
<glyph unicode="&#xa2;" horiz-adv-x="507" d="M267 342q-1 0 -5 0.5t-7 0.5q-78 0 -78 -127q0 -54 15 -86zM432 107q-34 -64 -75.5 -91.5t-101.5 -26.5q-21 0 -44 5l-35 -98h-66l43 122q-85 57 -85 198q0 103 50 164.5t137 61.5q27 0 46 -4l29 83h66l-38 -108q48 -30 70 -98l-98 -39q-4 11 -11 25l-74 -212h13 q26 0 45 17t38 53z" />
<glyph unicode="&#xa3;" horiz-adv-x="424" d="M396 0h-329v197h-42v90h42v45q0 85 56.5 131.5t134.5 46.5q45 0 76 -12t62 -43l-82 -81q-27 25 -56 25q-66 0 -66 -69v-43h66v-90h-66v-86h204v-111z" />
<glyph unicode="&#xa4;" horiz-adv-x="507" d="M355 300q0 46 -29 76.5t-73 30.5t-72.5 -30.5t-28.5 -76.5q0 -47 28.5 -77.5t72.5 -30.5t73 30.5t29 77.5zM473 143l-62 -64l-45 42q-53 -32 -113 -32q-61 0 -112 32l-45 -42l-63 64l43 43q-34 53 -34 114q0 60 34 113l-43 43l63 64l45 -42q53 33 112 33t113 -33l45 42 l62 -64l-43 -43q34 -51 34 -113q0 -63 -34 -114z" />
<glyph unicode="&#xa5;" horiz-adv-x="507" d="M490 599l-107 -212h68v-95h-116l-18 -35h134v-95h-143v-162h-110v162h-143v95h134l-17 35h-117v95h70l-108 212h120l116 -237l117 237h120z" />
<glyph unicode="&#xa6;" horiz-adv-x="184" d="M137 -8h-90v234h90v-234zM137 374h-90v234h90v-234z" />
<glyph unicode="&#xa7;" horiz-adv-x="415" d="M281 225q0 10 -13 26q-6 8 -40 46q-49 54 -70 54q-10 0 -17 -6.5t-7 -15.5q0 -17 52.5 -72t69.5 -55q25 0 25 23zM373 229q0 -31 -18.5 -58.5t-57.5 -38.5q32 -42 32 -89q0 -53 -36 -83t-86 -30q-74 0 -139 80l69 55q32 -49 63 -49q36 0 36 30q0 22 -30.5 57t-67 66.5 t-67 74t-30.5 77.5q0 38 21.5 65t56.5 35q-29 40 -29 83q0 48 32.5 76t81.5 28q44 0 73 -16t65 -60l-68 -57q-20 25 -33.5 36t-29.5 11q-12 0 -20.5 -7.5t-8.5 -16.5q0 -18 30 -50t65.5 -63t65.5 -74t30 -82z" />
<glyph unicode="&#xa8;" horiz-adv-x="425" d="M160 513h-78v92h78v-92zM343 513h-78v92h78v-92z" />
<glyph unicode="&#xa9;" horiz-adv-x="612" d="M409 356l-39 -40q-31 27 -60 27q-70 0 -70 -90t70 -90q29 0 60 26l39 -40q-47 -40 -99 -40q-58 0 -93.5 39.5t-35.5 104.5t35.5 104.5t93.5 39.5q52 0 99 -41zM502 253q0 84 -57 142t-139 58t-139 -58t-57 -142t57 -142t139 -58t139 58t57 142zM563 253 q0 -107 -75.5 -182t-181.5 -75t-181.5 75t-75.5 182t75.5 182t181.5 75t181.5 -75t75.5 -182z" />
<glyph unicode="&#xaa;" horiz-adv-x="249" d="M161 412v55q-27 -5 -41.5 -8.5t-29 -15t-14.5 -28.5q0 -23 28 -23q16 0 33 6t24 14zM232 344h-68v23q-36 -28 -83 -28q-36 0 -56 20t-20 49q0 83 156 101v19q0 26 -36 26q-40 0 -62 -24l-43 30q13 21 43.5 34.5t61.5 13.5q58 -2 82.5 -25t24.5 -80v-159z" />
<glyph unicode="&#xab;" horiz-adv-x="461" d="M261 83h-112l-102 130l102 136h112l-104 -135zM422 83h-113l-101 130l101 136h112l-104 -135z" />
<glyph unicode="&#xac;" horiz-adv-x="733" d="M643 0h-553v553h553v-553z" />
<glyph unicode="&#xad;" horiz-adv-x="455" d="M405 226h-355v126h355v-126z" />
<glyph unicode="&#xae;" horiz-adv-x="612" d="M354 306q0 15 -11 25.5t-29 10.5h-41v-72h41q18 0 29 10.5t11 25.5zM423 112h-67l-56 108h-27v-108h-60v282h108q40 0 66 -25.5t26 -62.5q0 -56 -51 -77zM502 253q0 84 -57 142t-139 58q-83 0 -140 -58t-57 -142q0 -85 57 -143t140 -58t139.5 58t56.5 143zM563 253 q0 -107 -75.5 -182t-181.5 -75t-181.5 75t-75.5 182t75.5 182t181.5 75t181.5 -75t75.5 -182z" />
<glyph unicode="&#xaf;" horiz-adv-x="231" d="M259 513h-287v61h287v-61z" />
<glyph unicode="&#xb0;" horiz-adv-x="345" d="M219 377q0 19 -13.5 32.5t-32.5 13.5q-20 0 -33.5 -13.5t-13.5 -32.5t14 -32.5t33 -13.5t32.5 13.5t13.5 32.5zM312 377q0 -57 -41 -98t-98 -41q-58 0 -99 41t-41 98q0 58 41 98.5t99 40.5q57 0 98 -40.5t41 -98.5z" />
<glyph unicode="&#xb1;" horiz-adv-x="498" d="M465 0h-432v90h432v-90zM465 232h-171v-110h-90v110h-171v90h171v110h90v-110h171v-90z" />
<glyph unicode="&#xb2;" horiz-adv-x="258" d="M230 200h-202v73l106 108q16 17 16 28q0 21 -21 21q-19 0 -19 -21h-82q0 44 29.5 69t71.5 25q44 0 72.5 -25.5t28.5 -68.5q0 -38 -42 -78l-61 -58h103v-73z" />
<glyph unicode="&#xb3;" horiz-adv-x="263" d="M235 292q0 -46 -30 -70.5t-74 -24.5q-43 0 -73.5 24.5t-29.5 74.5h81q-2 -26 22 -26q23 0 23 25q0 10 -7 17t-16 7h-12v69h12q10 0 15.5 7t5.5 14q0 21 -20 21t-20 -22h-81q-1 42 28.5 68.5t72.5 26.5t71.5 -26t28.5 -66q0 -35 -28 -56q31 -28 31 -63z" />
<glyph unicode="&#xb4;" horiz-adv-x="425" d="M328 647l-94 -138h-66l64 138h96z" />
<glyph unicode="&#xb5;" horiz-adv-x="461" d="M408 -5h-108v36q-66 -44 -116 -44h-15v-145h-116v590h116v-281q0 -38 10 -51.5t31 -13.5q47 0 82 39v307h116v-437z" />
<glyph unicode="&#xb6;" horiz-adv-x="515" d="M486 512h-58v-568h-100v568h-52v-568h-100v352q-71 2 -114.5 42t-43.5 107q0 44 15.5 75.5t42 48t55.5 23.5t64 7h291v-87z" />
<glyph unicode="&#xb7;" horiz-adv-x="247" d="M199 173h-151v151h151v-151z" />
<glyph unicode="&#xb8;" horiz-adv-x="231" d="M213 -111q0 -39 -32 -59t-73 -20q-38 0 -91 22l15 34q36 -13 65 -13q43 0 43 35q0 26 -35 26q-7 0 -21 -2l-14 -3l-17 16l49 75h44l-36 -52q20 4 30 4q31 0 52 -16t21 -47z" />
<glyph unicode="&#xb9;" horiz-adv-x="218" d="M173 200h-82v209l-66 -58v91l66 58h82v-300z" />
<glyph unicode="&#xba;" horiz-adv-x="249" d="M174 473q0 81 -49 81q-51 0 -51 -81t51 -81q49 0 49 81zM246 473q0 -62 -32.5 -98t-88.5 -36q-57 0 -90 36t-33 98t33 98.5t90 36.5q56 0 88.5 -36.5t32.5 -98.5z" />
<glyph unicode="&#xbb;" horiz-adv-x="461" d="M254 218l-102 -135h-112l104 135l-104 131h112zM414 218l-101 -135h-112l104 135l-105 131h113z" />
<glyph unicode="&#xbc;" horiz-adv-x="612" d="M173 200h-82v209l-66 -58v91l66 58h82v-300zM463 500l-238 -500h-89l238 500h89zM584 37h-19v-37h-76v37h-126v77l97 186h89l-97 -186h37v26h76v-26h19v-77z" />
<glyph unicode="&#xbd;" horiz-adv-x="635" d="M173 200h-82v209l-66 -58v91l66 58h82v-300zM463 500l-238 -500h-89l238 500h89zM607 0h-202v73l106 108q16 17 16 28q0 21 -21 21q-19 0 -19 -21h-82q0 44 29.5 69t71.5 25q44 0 72.5 -25.5t28.5 -68.5q0 -38 -42 -78l-61 -58h103v-73z" />
<glyph unicode="&#xbe;" horiz-adv-x="626" d="M235 292q0 -46 -30 -70.5t-74 -24.5q-43 0 -73.5 24.5t-29.5 74.5h81q-2 -26 22 -26q23 0 23 25q0 10 -7 17t-16 7h-12v69h12q10 0 15.5 7t5.5 14q0 21 -20 21t-20 -22h-81q-1 42 28.5 68.5t72.5 26.5t71.5 -26t28.5 -66q0 -35 -28 -56q31 -28 31 -63zM477 500l-238 -500 h-89l238 500h89zM598 37h-19v-37h-76v37h-126v77l97 186h89l-97 -186h37v26h76v-26h19v-77z" />
<glyph unicode="&#xbf;" horiz-adv-x="369" d="M362 -16q-17 -69 -61.5 -105.5t-110.5 -36.5q-64 0 -107.5 37t-43.5 102q0 37 17.5 70.5t39 55.5t39 51t17.5 57v40h104v-54q0 -32 -15.5 -66.5t-34.5 -58.5t-34.5 -51.5t-15.5 -48.5q0 -14 12 -24t28 -10q22 0 37 20.5t20 52.5zM266 316h-127v134h127v-134z" />
<glyph unicode="&#xc0;" horiz-adv-x="507" d="M309 236l-53 208l-56 -208h109zM499 0h-129l-32 125h-167l-34 -125h-129l171 600h152zM329 632h-98l-129 122h144z" />
<glyph unicode="&#xc1;" horiz-adv-x="507" d="M309 236l-53 208l-56 -208h109zM499 0h-129l-32 125h-167l-34 -125h-129l171 600h152zM441 754l-128 -122h-98l83 122h143z" />
<glyph unicode="&#xc2;" horiz-adv-x="507" d="M309 236l-53 208l-56 -208h109zM499 0h-129l-32 125h-167l-34 -125h-129l171 600h152zM404 632h-112l-45 53l-45 -53h-110l102 122h105z" />
<glyph unicode="&#xc3;" horiz-adv-x="507" d="M309 236l-53 208l-56 -208h109zM499 0h-129l-32 125h-167l-34 -125h-129l171 600h152zM408 745q-23 -102 -98 -102q-14 0 -29.5 3.5t-33.5 9.5t-28 8q-18 4 -23 4q-18 0 -30 -29h-65q7 44 31.5 73t67.5 29q15 0 28.5 -3t36 -10.5t26.5 -8.5q16 -4 18 -4q21 0 29 30h70z " />
<glyph unicode="&#xc4;" horiz-adv-x="507" d="M309 236l-53 208l-56 -208h109zM499 0h-129l-32 125h-167l-34 -125h-129l171 600h152zM225 641h-100v96h100v-96zM383 641h-100v96h100v-96z" />
<glyph unicode="&#xc5;" horiz-adv-x="507" d="M309 236l-53 208l-56 -208h109zM285 721q0 13 -9 22.5t-22 9.5t-22 -9.5t-9 -22.5t9 -22t22 -9t22 9t9 22zM499 0h-129l-32 125h-167l-34 -125h-129l171 600h152zM344 721q0 -37 -26 -63t-64 -26t-64 26t-26 63t26 63.5t64 26.5t64 -26.5t26 -63.5z" />
<glyph unicode="&#xc6;" horiz-adv-x="784" d="M377 237v279h-2l-133 -279h135zM752 0h-375v140h-183l-66 -140h-122l301 599h436v-96h-252v-143h175v-96h-175v-168h261v-96z" />
<glyph unicode="&#xc7;" horiz-adv-x="507" d="M492 157q-53 -157 -201 -169l-14 -20h8q33 0 56.5 -18t23.5 -53q0 -44 -34.5 -65.5t-76.5 -21.5q-37 0 -99 25l21 52q41 -15 68 -15q18 0 25 5t7 19q0 15 -25 15q-13 0 -37 -6l-25 26l38 59q-97 13 -149.5 93.5t-52.5 213.5q0 147 62.5 229t177.5 82q168 0 213 -171 l-118 -29q-28 86 -98 86q-50 0 -78.5 -49t-29.5 -148q-1 -196 111 -196q36 0 59 17.5t48 70.5z" />
<glyph unicode="&#xc8;" horiz-adv-x="507" d="M476 0h-406v599h397v-112h-269v-119h195v-113h-195v-142h278v-113zM329 632h-98l-129 122h144z" />
<glyph unicode="&#xc9;" horiz-adv-x="507" d="M476 0h-406v599h397v-112h-269v-119h195v-113h-195v-142h278v-113zM421 754l-128 -122h-98l83 122h143z" />
<glyph unicode="&#xca;" horiz-adv-x="507" d="M476 0h-406v599h397v-112h-269v-119h195v-113h-195v-142h278v-113zM424 632h-112l-45 53l-45 -53h-110l102 122h105z" />
<glyph unicode="&#xcb;" horiz-adv-x="507" d="M476 0h-406v599h397v-112h-269v-119h195v-113h-195v-142h278v-113zM238 641h-100v96h100v-96zM396 641h-100v96h100v-96z" />
<glyph unicode="&#xcc;" horiz-adv-x="295" d="M215 0h-135v599h135v-599zM209 632h-98l-129 122h144z" />
<glyph unicode="&#xcd;" horiz-adv-x="295" d="M215 0h-135v599h135v-599zM331 754l-128 -122h-98l83 122h143z" />
<glyph unicode="&#xce;" horiz-adv-x="295" d="M215 0h-135v599h135v-599zM304 632h-112l-45 53l-45 -53h-110l102 122h105z" />
<glyph unicode="&#xcf;" horiz-adv-x="295" d="M215 0h-135v599h135v-599zM118 641h-100v96h100v-96zM276 641h-100v96h100v-96z" />
<glyph unicode="&#xd0;" horiz-adv-x="554" d="M402 300q0 87 -32 137t-114 50h-64v-119h119v-119h-119v-136h64q82 0 114 50t32 137zM532 300q0 -152 -72 -226t-197 -74h-200v249h-54v119h54v231h200q125 0 197 -73.5t72 -225.5z" />
<glyph unicode="&#xd1;" horiz-adv-x="599" d="M532 0h-121l-221 389v-389h-123v599h130l212 -371v371h123v-599zM454 745q-12 -47 -33.5 -74.5t-64.5 -27.5q-14 0 -29.5 3.5t-34 9.5t-28.5 8q-18 4 -23 4q-18 0 -29 -29h-66q7 45 32 73.5t68 28.5q14 0 27.5 -3t36 -10.5t26.5 -8.5q16 -4 19 -4q21 0 29 30h70z" />
<glyph unicode="&#xd2;" horiz-adv-x="554" d="M398 300q0 101 -30 148t-92 47q-121 0 -122 -195q0 -101 30 -148.5t92 -47.5t92 47.5t30 148.5zM528 300q0 -146 -65 -227t-187 -81t-186.5 81t-64.5 227t64.5 227t186.5 81t187 -81t65 -227zM329 632h-98l-129 122h144z" />
<glyph unicode="&#xd3;" horiz-adv-x="554" d="M398 300q0 101 -30 148t-92 47q-121 0 -122 -195q0 -101 30 -148.5t92 -47.5t92 47.5t30 148.5zM528 300q0 -146 -65 -227t-187 -81t-186.5 81t-64.5 227t64.5 227t186.5 81t187 -81t65 -227zM441 754l-128 -122h-98l83 122h143z" />
<glyph unicode="&#xd4;" horiz-adv-x="554" d="M398 300q0 101 -30 148t-92 47q-121 0 -122 -195q0 -101 30 -148.5t92 -47.5t92 47.5t30 148.5zM528 300q0 -146 -65 -227t-187 -81t-186.5 81t-64.5 227t64.5 227t186.5 81t187 -81t65 -227zM434 632h-112l-45 53l-45 -53h-110l102 122h105z" />
<glyph unicode="&#xd5;" horiz-adv-x="554" d="M398 300q0 101 -30 148t-92 47q-121 0 -122 -195q0 -101 30 -148.5t92 -47.5t92 47.5t30 148.5zM528 300q0 -146 -65 -227t-187 -81t-186.5 81t-64.5 227t64.5 227t186.5 81t187 -81t65 -227zM431 745q-23 -102 -98 -102q-14 0 -29.5 3.5t-33.5 9.5t-28 8q-18 4 -23 4 q-11 0 -17 -6.5t-12 -22.5h-66q7 45 32 73.5t67 28.5q15 0 28.5 -3t36 -10.5t26.5 -8.5q16 -4 19 -4q21 0 29 30h69z" />
<glyph unicode="&#xd6;" horiz-adv-x="554" d="M398 300q0 101 -30 148t-92 47q-121 0 -122 -195q0 -101 30 -148.5t92 -47.5t92 47.5t30 148.5zM528 300q0 -146 -65 -227t-187 -81t-186.5 81t-64.5 227t64.5 227t186.5 81t187 -81t65 -227zM248 641h-99v96h99v-96zM406 641h-100v96h100v-96z" />
<glyph unicode="&#xd7;" horiz-adv-x="595" d="M545 102l-106 -95l-142 127l-141 -127l-106 95l141 127l-141 126l106 95l141 -126l142 126l106 -95l-141 -126z" />
<glyph unicode="&#xd8;" horiz-adv-x="554" d="M399 299q0 51 -9 89l-177 -268q26 -17 63 -17q123 0 123 196zM336 480q-24 15 -60 15q-62 0 -92 -47.5t-30 -148.5q0 -56 6 -85zM553 632l-79 -119q54 -78 54 -214q0 -146 -65 -227.5t-187 -81.5q-77 0 -128 32l-51 -77h-115l95 143q-53 77 -53 211q0 147 64.5 228 t187.5 81q74 0 126 -30l35 54h116z" />
<glyph unicode="&#xd9;" horiz-adv-x="599" d="M530 226q0 -64 -18.5 -110.5t-51.5 -73t-73 -38.5t-87 -12q-101 0 -165.5 55.5t-64.5 178.5v373h129v-377q0 -66 24 -92t77 -26t77 26t24 92v377h129v-373zM349 632h-98l-129 122h144z" />
<glyph unicode="&#xda;" horiz-adv-x="599" d="M530 226q0 -64 -18.5 -110.5t-51.5 -73t-73 -38.5t-87 -12q-101 0 -165.5 55.5t-64.5 178.5v373h129v-377q0 -66 24 -92t77 -26t77 26t24 92v377h129v-373zM451 754l-128 -122h-98l83 122h143z" />
<glyph unicode="&#xdb;" horiz-adv-x="599" d="M530 226q0 -64 -18.5 -110.5t-51.5 -73t-73 -38.5t-87 -12q-101 0 -165.5 55.5t-64.5 178.5v373h129v-377q0 -66 24 -92t77 -26t77 26t24 92v377h129v-373zM454 632h-112l-45 53l-45 -53h-110l102 122h105z" />
<glyph unicode="&#xdc;" horiz-adv-x="599" d="M530 226q0 -64 -18.5 -110.5t-51.5 -73t-73 -38.5t-87 -12q-101 0 -165.5 55.5t-64.5 178.5v373h129v-377q0 -66 24 -92t77 -26t77 26t24 92v377h129v-373zM268 641h-100v96h100v-96zM426 641h-100v96h100v-96z" />
<glyph unicode="&#xdd;" horiz-adv-x="461" d="M459 599l-164 -360v-239h-129v239l-163 360h136l92 -215l92 215h136zM382 754l-128 -122h-98l83 122h143z" />
<glyph unicode="&#xde;" horiz-adv-x="507" d="M359 310q0 37 -20.5 55t-75.5 18h-78v-146h78q55 0 75.5 18t20.5 55zM487 310q0 -93 -56 -137.5t-156 -44.5h-90v-128h-129v599h129v-107h90q100 0 156 -44.5t56 -137.5z" />
<glyph unicode="&#xdf;" horiz-adv-x="415" d="M398 169q0 -95 -39 -136t-111 -41q-43 0 -74 25l29 88q27 -14 41 -14q38 0 38 82q0 48 -13.5 72.5t-47.5 24.5h-30v99h22q38 0 38 62q0 69 -49 69q-42 0 -42 -52v-448h-116v451q0 66 40.5 107t115.5 41q80 0 122 -40t42 -111q0 -83 -49 -118q83 -37 83 -161z" />
<glyph unicode="&#xe0;" horiz-adv-x="415" d="M249 123v72q-23 -4 -36 -7.5t-36 -11.5t-34.5 -21.5t-11.5 -31.5q0 -39 38 -39q35 0 80 39zM365 0h-112v27q-56 -35 -118 -35q-57 0 -88.5 35t-31.5 84q0 74 58.5 114.5t175.5 55.5v27q0 18 -13.5 29t-36.5 11q-29 0 -48.5 -13.5t-39.5 -41.5l-77 59q23 40 70 64.5 t95 23.5q88 -2 127 -41.5t39 -135.5v-263zM282 486h-97l-129 122h143z" />
<glyph unicode="&#xe1;" horiz-adv-x="415" d="M249 123v72q-23 -4 -36 -7.5t-36 -11.5t-34.5 -21.5t-11.5 -31.5q0 -39 38 -39q35 0 80 39zM365 0h-112v27q-56 -35 -118 -35q-57 0 -88.5 35t-31.5 84q0 74 58.5 114.5t175.5 55.5v27q0 18 -13.5 29t-36.5 11q-29 0 -48.5 -13.5t-39.5 -41.5l-77 59q23 40 70 64.5 t95 23.5q88 -2 127 -41.5t39 -135.5v-263zM359 608l-129 -122h-97l83 122h143z" />
<glyph unicode="&#xe2;" horiz-adv-x="415" d="M249 123v72q-23 -4 -36 -7.5t-36 -11.5t-34.5 -21.5t-11.5 -31.5q0 -39 38 -39q35 0 80 39zM365 0h-112v27q-56 -35 -118 -35q-57 0 -88.5 35t-31.5 84q0 74 58.5 114.5t175.5 55.5v27q0 18 -13.5 29t-36.5 11q-29 0 -48.5 -13.5t-39.5 -41.5l-77 59q23 40 70 64.5 t95 23.5q88 -2 127 -41.5t39 -135.5v-263zM364 486h-112l-45 53l-45 -53h-110l102 122h105z" />
<glyph unicode="&#xe3;" horiz-adv-x="415" d="M249 123v72q-23 -4 -36 -7.5t-36 -11.5t-34.5 -21.5t-11.5 -31.5q0 -39 38 -39q35 0 80 39zM365 0h-112v27q-56 -35 -118 -35q-57 0 -88.5 35t-31.5 84q0 74 58.5 114.5t175.5 55.5v27q0 18 -13.5 29t-36.5 11q-29 0 -48.5 -13.5t-39.5 -41.5l-77 59q23 40 70 64.5 t95 23.5q88 -2 127 -41.5t39 -135.5v-263zM362 599q-12 -47 -33.5 -74.5t-64.5 -27.5q-14 0 -29.5 3.5t-34 9.5t-28.5 8q-18 4 -23 4q-18 0 -29 -29h-66q7 45 32 73.5t68 28.5q14 0 27.5 -3t36 -10.5t26.5 -8.5q11 -4 19 -4q21 0 29 30h70z" />
<glyph unicode="&#xe4;" horiz-adv-x="415" d="M249 123v72q-23 -4 -36 -7.5t-36 -11.5t-34.5 -21.5t-11.5 -31.5q0 -39 38 -39q35 0 80 39zM365 0h-112v27q-56 -35 -118 -35q-57 0 -88.5 35t-31.5 84q0 74 58.5 114.5t175.5 55.5v27q0 18 -13.5 29t-36.5 11q-29 0 -48.5 -13.5t-39.5 -41.5l-77 59q23 40 70 64.5 t95 23.5q88 -2 127 -41.5t39 -135.5v-263zM178 495h-99v96h99v-96zM336 495h-99v96h99v-96z" />
<glyph unicode="&#xe5;" horiz-adv-x="415" d="M249 123v72q-23 -4 -36 -7.5t-36 -11.5t-34.5 -21.5t-11.5 -31.5q0 -39 38 -39q35 0 80 39zM239 575q0 13 -9 22.5t-22 9.5q-14 0 -23 -9.5t-9 -22.5t9.5 -22t22.5 -9t22 9t9 22zM365 0h-112v27q-56 -35 -118 -35q-57 0 -88.5 35t-31.5 84q0 74 58.5 114.5t175.5 55.5v27 q0 18 -13.5 29t-36.5 11q-29 0 -48.5 -13.5t-39.5 -41.5l-77 59q23 40 70 64.5t95 23.5q88 -2 127 -41.5t39 -135.5v-263zM297 575q0 -37 -26 -63t-63 -26q-38 0 -64 26t-26 63t26 63.5t64 26.5q37 0 63 -26.5t26 -63.5z" />
<glyph unicode="&#xe6;" horiz-adv-x="646" d="M258 123v73q-31 -6 -47 -9.5t-37 -11.5t-30.5 -21t-9.5 -31q0 -39 38 -39q32 0 86 39zM511 276q-8 72 -70 72q-64 0 -72 -72h142zM626 88q-63 -96 -188 -96q-89 0 -134 60q-88 -60 -166 -60q-58 0 -90.5 35t-32.5 84q0 74 60.5 114.5t182.5 55.5v27q0 18 -15 29t-40 11 q-29 0 -49 -13.5t-41 -41.5l-79 59q24 41 72 65.5t97 22.5q83 -3 122 -40q43 40 113 40q86 0 135 -58.5t49 -141.5v-50h-253v-31q0 -30 21 -49.5t56 -19.5q31 0 49 11.5t44 40.5z" />
<glyph unicode="&#xe7;" horiz-adv-x="415" d="M383 104q-29 -56 -63.5 -83.5t-82.5 -32.5l-14 -21h8q32 0 55 -18t23 -53q0 -43 -34 -64.5t-75 -21.5q-36 0 -98 25l21 51q47 -15 67 -15q18 0 24.5 5t6.5 19q0 15 -24 15q-9 0 -36 -5l-25 25l38 59q-73 12 -113.5 71.5t-40.5 152.5q0 103 50 165t137 62q62 0 107.5 -33 t65.5 -94l-98 -39q-16 36 -31 51t-44 15q-71 0 -71 -127q0 -68 18.5 -97.5t55.5 -29.5q26 0 45 17t38 53z" />
<glyph unicode="&#xe8;" horiz-adv-x="415" d="M274 276q-3 35 -21 53.5t-47 18.5q-30 0 -48 -18.5t-21 -53.5h137zM387 88q-33 -51 -77.5 -73.5t-107.5 -22.5q-84 0 -133 61t-49 163t49.5 162.5t137.5 61.5q82 0 129 -59t47 -141v-50h-246q3 -53 23.5 -76.5t51.5 -23.5q29 0 47 11.5t42 40.5zM282 486h-97l-129 122 h143z" />
<glyph unicode="&#xe9;" horiz-adv-x="415" d="M274 276q-3 35 -21 53.5t-47 18.5q-30 0 -48 -18.5t-21 -53.5h137zM387 88q-33 -51 -77.5 -73.5t-107.5 -22.5q-84 0 -133 61t-49 163t49.5 162.5t137.5 61.5q82 0 129 -59t47 -141v-50h-246q3 -53 23.5 -76.5t51.5 -23.5q29 0 47 11.5t42 40.5zM359 608l-129 -122h-97 l83 122h143z" />
<glyph unicode="&#xea;" horiz-adv-x="415" d="M274 276q-3 35 -21 53.5t-47 18.5q-30 0 -48 -18.5t-21 -53.5h137zM387 88q-33 -51 -77.5 -73.5t-107.5 -22.5q-84 0 -133 61t-49 163t49.5 162.5t137.5 61.5q82 0 129 -59t47 -141v-50h-246q3 -53 23.5 -76.5t51.5 -23.5q29 0 47 11.5t42 40.5zM364 486h-112l-45 53 l-45 -53h-110l102 122h105z" />
<glyph unicode="&#xeb;" horiz-adv-x="415" d="M274 276q-3 35 -21 53.5t-47 18.5q-30 0 -48 -18.5t-21 -53.5h137zM387 88q-33 -51 -77.5 -73.5t-107.5 -22.5q-84 0 -133 61t-49 163t49.5 162.5t137.5 61.5q82 0 129 -59t47 -141v-50h-246q3 -53 23.5 -76.5t51.5 -23.5q29 0 47 11.5t42 40.5zM178 495h-99v96h99v-96z M336 495h-99v96h99v-96z" />
<glyph unicode="&#xec;" horiz-adv-x="231" d="M177 0h-123v432h123v-432zM192 486h-98l-128 122h143z" />
<glyph unicode="&#xed;" horiz-adv-x="231" d="M177 0h-123v432h123v-432zM269 608l-129 -122h-98l83 122h144z" />
<glyph unicode="&#xee;" horiz-adv-x="231" d="M177 0h-123v432h123v-432zM273 486h-112l-44 53l-45 -53h-111l102 122h106z" />
<glyph unicode="&#xef;" horiz-adv-x="231" d="M177 0h-123v432h123v-432zM88 495h-100v96h100v-96zM246 495h-100v96h100v-96z" />
<glyph unicode="&#xf0;" horiz-adv-x="415" d="M278 205q0 115 -70 115q-71 0 -71 -115q0 -114 71 -114q70 0 70 114zM395 205q0 -94 -50.5 -153.5t-136.5 -59.5q-87 0 -137.5 59.5t-50.5 153.5q0 95 50.5 154.5t137.5 59.5q11 0 16 -1q-7 18 -20 35l-81 -40l-37 68l69 35q-13 14 -55 50l106 34q25 -18 44 -37l81 39 l38 -68l-68 -34q44 -64 69 -142.5t25 -152.5z" />
<glyph unicode="&#xf1;" horiz-adv-x="461" d="M408 0h-116v278q0 37 -10 50t-31 13q-47 0 -82 -37v-304h-116v432h109v-36q66 44 116 44q64 0 97 -40t33 -108v-292zM381 599q-12 -47 -33.5 -74.5t-64.5 -27.5q-14 0 -29.5 3.5t-34 9.5t-28.5 8q-18 4 -23 4q-18 0 -29 -29h-66q7 45 32 73.5t68 28.5q14 0 27.5 -3 t36 -10.5t26.5 -8.5q11 -4 19 -4q22 0 29 30h70z" />
<glyph unicode="&#xf2;" horiz-adv-x="415" d="M278 216q0 67 -17.5 96t-52.5 29q-36 0 -53.5 -29t-17.5 -96t17.5 -96.5t53.5 -29.5q70 0 70 126zM395 216q0 -102 -50 -163t-137 -61q-88 0 -138 61t-50 163t50 163t138 61q87 0 137 -61t50 -163zM280 486h-98l-128 122h143z" />
<glyph unicode="&#xf3;" horiz-adv-x="415" d="M278 216q0 67 -17.5 96t-52.5 29q-36 0 -53.5 -29t-17.5 -96t17.5 -96.5t53.5 -29.5q70 0 70 126zM395 216q0 -102 -50 -163t-137 -61q-88 0 -138 61t-50 163t50 163t138 61q87 0 137 -61t50 -163zM357 608l-129 -122h-98l83 122h144z" />
<glyph unicode="&#xf4;" horiz-adv-x="415" d="M278 216q0 67 -17.5 96t-53.5 29q-35 0 -52.5 -29t-17.5 -96q0 -126 70 -126q36 0 53.5 29.5t17.5 96.5zM395 216q0 -102 -50 -163t-138 -61q-87 0 -137 61t-50 163t50 163t137 61q88 0 138 -61t50 -163zM361 486h-112l-44 53l-45 -53h-111l102 122h106z" />
<glyph unicode="&#xf5;" horiz-adv-x="415" d="M278 216q0 67 -17.5 96t-53.5 29q-35 0 -52.5 -29t-17.5 -96q0 -126 70 -126q36 0 53.5 29.5t17.5 96.5zM395 216q0 -102 -50 -163t-138 -61q-87 0 -137 61t-50 163t50 163t137 61q88 0 138 -61t50 -163zM359 599q-23 -102 -98 -102q-14 0 -29.5 3.5t-33.5 9.5t-28 8 q-18 4 -23 4q-18 0 -30 -29h-65q7 44 31.5 73t67.5 29q15 0 28.5 -3t36 -10.5t26.5 -8.5q11 -4 18 -4q22 0 29 30h70z" />
<glyph unicode="&#xf6;" horiz-adv-x="415" d="M278 216q0 67 -17.5 96t-52.5 29q-36 0 -53.5 -29t-17.5 -96t17.5 -96.5t53.5 -29.5q70 0 70 126zM395 216q0 -102 -50 -163t-137 -61q-88 0 -138 61t-50 163t50 163t138 61q87 0 137 -61t50 -163zM176 495h-100v96h100v-96zM334 495h-100v96h100v-96z" />
<glyph unicode="&#xf7;" horiz-adv-x="453" d="M280 28h-107v108h107v-108zM411 188h-370v96h370v-96zM280 337h-107v108h107v-108z" />
<glyph unicode="&#xf8;" horiz-adv-x="415" d="M279 216q0 14 -2 36l-87 -161q10 -2 18 -2q71 0 71 127zM231 339q-14 4 -23 4q-72 0 -72 -127q0 -25 3 -46zM416 508l-70 -128q50 -61 50 -164t-50 -165t-138 -62q-37 0 -67 12l-46 -84h-93l71 131q-54 62 -54 168q0 103 50.5 164.5t138.5 61.5q41 0 71 -13l43 79h94z " />
<glyph unicode="&#xf9;" horiz-adv-x="461" d="M408 0h-108v36q-63 -44 -116 -44q-65 0 -98 39.5t-33 107.5v293h116v-278q0 -37 10 -50.5t31 -13.5q46 0 82 38v304h116v-432zM306 486h-98l-129 122h144z" />
<glyph unicode="&#xfa;" horiz-adv-x="461" d="M408 0h-108v36q-63 -44 -116 -44q-65 0 -98 39.5t-33 107.5v293h116v-278q0 -37 10 -50.5t31 -13.5q46 0 82 38v304h116v-432zM382 608l-128 -122h-98l83 122h143z" />
<glyph unicode="&#xfb;" horiz-adv-x="461" d="M408 0h-108v36q-63 -44 -116 -44q-65 0 -98 39.5t-33 107.5v293h116v-278q0 -37 10 -50.5t31 -13.5q46 0 82 38v304h116v-432zM387 486h-112l-44 53l-45 -53h-111l102 122h106z" />
<glyph unicode="&#xfc;" horiz-adv-x="461" d="M408 0h-108v36q-63 -44 -116 -44q-65 0 -98 39.5t-33 107.5v293h116v-278q0 -37 10 -50.5t31 -13.5q46 0 82 38v304h116v-432zM202 495h-100v96h100v-96zM359 495h-99v96h99v-96z" />
<glyph unicode="&#xfd;" horiz-adv-x="369" d="M364 432l-132 -431q-28 -91 -64.5 -125t-102.5 -34q-22 0 -57 5v102q26 -5 51 -5q30 0 43.5 11.5t23.5 40.5q3 9 3 20q0 5 -12 47l-113 369h118l62 -233l63 233h117zM336 608l-129 -122h-98l83 122h144z" />
<glyph unicode="&#xfe;" horiz-adv-x="461" d="M318 216q0 64 -21.5 96t-60.5 32q-10 0 -17 -1t-14.5 -5.5t-10.5 -6t-12.5 -9.5t-11.5 -10v-194q34 -30 66 -30q39 0 60.5 32t21.5 96zM435 205q0 -86 -46.5 -151.5t-127.5 -65.5q-49 0 -91 34v-180h-117v757h113v-190q43 35 95 35q84 0 129 -67.5t45 -171.5z" />
<glyph unicode="&#xff;" horiz-adv-x="369" d="M364 432l-132 -431q-28 -91 -64.5 -125t-102.5 -34q-22 0 -57 5v102q26 -5 51 -5q30 0 43.5 11.5t23.5 40.5q3 9 3 20q0 5 -12 47l-113 369h118l62 -233l63 233h117zM152 495h-100v96h100v-96zM309 495h-99v96h99v-96z" />
<glyph unicode="&#x131;" horiz-adv-x="231" d="M177 0h-123v432h123v-432z" />
<glyph unicode="&#x141;" horiz-adv-x="461" d="M440 0h-378v228l-62 -26v102l62 25v270h129v-217l125 52v-102l-125 -51v-168h249v-113z" />
<glyph unicode="&#x142;" horiz-adv-x="231" d="M231 339l-59 -31v-308h-113v249l-59 -32v102l59 32v248h113v-189l59 31v-102z" />
<glyph unicode="&#x152;" horiz-adv-x="784" d="M371 223v153q0 71 -22 95t-80 24q-29 0 -49 -7t-39.5 -26.5t-29 -60t-9.5 -101.5q0 -62 9.5 -102.5t29 -60t39.5 -26.5t49 -7q58 0 80 24t22 95zM764 0h-336q-24 0 -71 -4t-70 -4q-144 0 -210 77.5t-66 230.5t66 230.5t210 77.5q15 0 58.5 -4t68.5 -4h336v-113h-248v-119 h175v-113h-175v-143h262v-112z" />
<glyph unicode="&#x153;" horiz-adv-x="646" d="M267 216q0 125 -69 125t-69 -125q0 -126 69 -126t69 126zM511 276q-4 35 -21.5 53.5t-44.5 18.5t-45 -18.5t-21 -53.5h132zM626 88q-63 -96 -176 -96q-76 0 -122 49q-46 -49 -132 -49t-136 61t-50 163q0 101 50 162.5t136 61.5q83 0 130 -48q45 48 118 48q82 0 130.5 -59 t48.5 -141v-50h-245q3 -55 21.5 -77.5t57.5 -22.5q22 0 39 11.5t43 40.5z" />
<glyph unicode="&#x160;" horiz-adv-x="507" d="M464 180q0 -93 -55 -140.5t-155 -47.5q-75 0 -137 40.5t-90 111.5l107 48q24 -49 51 -71.5t69 -22.5q88 0 88 67q0 20 -17 37.5t-31.5 24.5t-39.5 18q-6 3 -37 15.5t-42 17.5t-37 18.5t-37.5 25.5t-26.5 29t-21 38t-6 46q0 80 56.5 126.5t137.5 46.5q73 0 129.5 -37.5 t85.5 -109.5l-118 -37q-29 77 -97 77q-72 0 -72 -54q0 -26 41 -49q16 -9 53 -23.5t47 -19.5q70 -28 112 -67.5t42 -107.5zM410 754l-104 -122h-106l-102 122h111l45 -53l44 53h112z" />
<glyph unicode="&#x161;" horiz-adv-x="369" d="M340 125q0 -66 -44 -99.5t-114 -33.5q-103 0 -167 95l80 60q45 -63 92 -63q22 0 35.5 10.5t13.5 26.5t-27 31q-11 6 -37.5 15.5t-31.5 11.5q-49 20 -78.5 49.5t-29.5 81.5q0 61 42.5 95.5t101.5 34.5q94 0 156 -73l-74 -67q-45 48 -76 48q-45 0 -45 -31q0 -17 27 -30 q8 -4 19 -8.5t26 -9.5t24 -9q48 -19 77.5 -49.5t29.5 -85.5zM340 608l-104 -122h-105l-103 122h111l45 -53l45 53h111z" />
<glyph unicode="&#x178;" horiz-adv-x="461" d="M459 599l-164 -360v-239h-129v239l-163 360h136l92 -215l92 215h136zM198 641h-100v96h100v-96zM356 641h-100v96h100v-96z" />
<glyph unicode="&#x17d;" horiz-adv-x="461" d="M440 0h-427v107l259 380h-240v112h406v-101l-268 -385h270v-113zM387 754l-104 -122h-106l-102 122h111l45 -53l44 53h112z" />
<glyph unicode="&#x17e;" horiz-adv-x="369" d="M354 0h-339v83l187 250h-171v99h321v-83l-186 -251h188v-98zM340 608l-104 -122h-105l-103 122h111l45 -53l45 53h111z" />
<glyph unicode="&#x192;" horiz-adv-x="507" d="M460 598l-16 -107q-30 13 -44 13q-27 0 -37 -26t-18 -90h80v-96h-97q-10 -48 -23 -122.5t-22.5 -121t-20.5 -79.5q-21 -62 -55 -93.5t-93 -33.5q-23 -1 -67 9l18 106q33 -11 50 -11q11 0 16.5 5t16 41.5t23.5 101t37 198.5h-75v96h96q23 121 55 170.5t104 49.5 q27 0 72 -10z" />
<glyph unicode="&#x2c6;" horiz-adv-x="231" d="M261 486h-93l-53 68l-53 -68h-93l94 122h103z" />
<glyph unicode="&#x2c7;" horiz-adv-x="231" d="M261 608l-95 -122h-103l-94 122h93l53 -68l53 68h93z" />
<glyph unicode="&#x2ca;" />
<glyph unicode="&#x2d8;" horiz-adv-x="231" d="M256 608q-18 -122 -146 -122q-60 0 -95.5 31.5t-39.5 90.5h55q6 -59 86 -59q36 0 57 13t28 46h55z" />
<glyph unicode="&#x2d9;" horiz-adv-x="231" d="M165 495h-99v96h99v-96z" />
<glyph unicode="&#x2da;" horiz-adv-x="231" d="M160 575q0 19 -13 32t-32 13t-31.5 -13t-12.5 -32t12.5 -32t31.5 -13t32 13t13 32zM205 575q0 -37 -26 -63t-64 -26q-37 0 -63 26t-26 63t26 63.5t63 26.5t63.5 -26.5t26.5 -63.5z" />
<glyph unicode="&#x2db;" horiz-adv-x="231" d="M237 -132q-71 -47 -126 -47q-37 0 -62 19t-25 55q0 29 18.5 52t49 37t60.5 21.5t62 11.5v-10q-117 -43 -117 -103q0 -19 12 -29.5t31 -10.5q27 0 80 34z" />
<glyph unicode="&#x2dc;" horiz-adv-x="231" d="M267 599q-22 -101 -92 -101q-21 0 -63.5 14.5t-58.5 14.5q-25 0 -38 -34h-52q7 42 31 71.5t64 29.5q25 0 65 -15t51 -15q15 0 25.5 10t13.5 25h54z" />
<glyph unicode="&#x2dd;" horiz-adv-x="231" d="M154 608l-109 -122h-82l64 122h127zM315 608l-121 -122h-84l78 122h127z" />
<glyph unicode="&#x5b0;" horiz-adv-x="0" d="M40 -247v1q0 -16 -12 -28t-28 -12t-28 11.5t-12 27.5t12 27.5t28 11.5t28 -11.5t12 -27.5zM40 -131v1q0 -16 -12 -27.5t-28 -11.5q-17 0 -28.5 11t-11.5 27q0 17 12 28.5t28 11.5t28 -11.5t12 -28.5z" />
<glyph unicode="&#x5b1;" horiz-adv-x="0" d="M-14 -247v1q0 -16 -11.5 -28t-27.5 -12t-28 11.5t-12 27.5t12 27.5t28 11.5t27.5 -11.5t11.5 -27.5zM-88 -130h1q0 -16 -12 -27.5t-28 -11.5t-27.5 11t-11.5 27t11.5 28t27.5 12t27.5 -11.5t11.5 -27.5zM39 -130h1q0 -16 -12 -27.5t-28 -11.5q-17 0 -28.5 11t-11.5 27 q0 17 12 28.5t28 11.5t27.5 -11.5t11.5 -27.5zM166 -247v1q0 -16 -11.5 -28t-27.5 -12t-28 11.5t-12 27.5t12 27.5t28 11.5t27.5 -11.5t11.5 -27.5zM166 -131v1q0 -16 -11.5 -27.5t-27.5 -11.5q-17 0 -28.5 11t-11.5 27q0 17 11.5 28.5t28.5 11.5q16 0 27.5 -12t11.5 -28z " />
<glyph unicode="&#x5b2;" horiz-adv-x="0" d="M26 -160h-179v60h179v-60zM153 -247v1q0 -16 -11.5 -28t-27.5 -12t-28 11.5t-12 27.5t11.5 27.5t27.5 11.5t28 -11.5t12 -27.5zM153 -131v1q0 -16 -11.5 -27.5t-27.5 -11.5q-17 0 -28.5 11t-11.5 27t11.5 28t27.5 12q17 0 28.5 -11.5t11.5 -28.5z" />
<glyph unicode="&#x5b3;" horiz-adv-x="0" d="M32 -160h-59v-117h-61v117h-59v60h179v-60zM160 -247v1q0 -16 -12 -28t-28 -12t-28 11.5t-12 27.5t12 27.5t28 11.5t28 -11.5t12 -27.5zM160 -131v1q0 -16 -12 -27.5t-28 -11.5q-17 0 -28.5 11t-11.5 27q0 17 12 28.5t28 11.5t28 -11.5t12 -28.5z" />
<glyph unicode="&#x5b4;" horiz-adv-x="0" d="M40 -131v1q0 -16 -12 -27.5t-28 -11.5q-17 0 -28.5 11t-11.5 27q0 17 12 28.5t28 11.5t28 -11.5t12 -28.5z" />
<glyph unicode="&#x5b5;" horiz-adv-x="0" d="M-34 -130q0 -16 -11.5 -27.5t-26.5 -11.5q-17 0 -28.5 11t-11.5 27t11.5 28t27.5 12t27.5 -11.5t11.5 -27.5zM112 -131v1q0 -16 -11.5 -27.5t-27.5 -11.5t-27.5 11t-11.5 27t11.5 28t26.5 12q16 0 28 -11.5t12 -28.5z" />
<glyph unicode="&#x5b6;" horiz-adv-x="0" d="M40 -252v1q0 -17 -12 -28.5t-28 -11.5t-28 11.5t-12 27.5t12 27.5t28 11.5t28 -11.5t12 -27.5zM-34 -130q0 -16 -11.5 -27.5t-26.5 -11.5q-17 0 -28.5 11t-11.5 27t11.5 28t27.5 12t27.5 -11.5t11.5 -27.5zM112 -131v1q0 -16 -11.5 -27.5t-27.5 -11.5t-27.5 11t-11.5 27 t11.5 28t26.5 12q16 0 28 -11.5t12 -28.5z" />
<glyph unicode="&#x5b7;" horiz-adv-x="0" d="M109 -130h-218v60h218v-60z" />
<glyph unicode="&#x5b8;" horiz-adv-x="0" d="M109 -160h-79v-117h-60v117h-79v60h218v-60z" />
<glyph unicode="&#x5b9;" horiz-adv-x="0" d="M40 583q0 -17 -12 -28.5t-28 -11.5t-28 11.5t-12 27.5t12 28t28 12t28 -11.5t12 -27.5z" />
<glyph unicode="&#x5bb;" horiz-adv-x="0" d="M39 -130h1q0 -16 -12 -27.5t-28 -11.5q-17 0 -28.5 11t-11.5 27q0 17 12 28.5t28 11.5t27.5 -11.5t11.5 -27.5zM149 -183q0 -16 -11.5 -28t-27.5 -12t-28 11.5t-12 27.5t11.5 28t27.5 12t28 -11.5t12 -27.5zM259 -237v1q0 -16 -11.5 -28t-27.5 -12t-28 11.5t-12 27.5 t11.5 27.5t27.5 11.5t28 -11.5t12 -27.5z" />
<glyph unicode="&#x5bc;" horiz-adv-x="0" d="M40 240q0 -16 -12 -28t-28 -12t-28 12t-12 28t12 28t28 12t28 -12t12 -28z" />
<glyph unicode="&#x5bd;" />
<glyph unicode="&#x5be;" horiz-adv-x="380" d="M330 428h-280v125h280v-125z" />
<glyph unicode="&#x5bf;" horiz-adv-x="0" d="M104 557h-208v60h208v-60z" />
<glyph unicode="&#x5c1;" horiz-adv-x="0" d="M40 582q0 -16 -12 -28t-28 -12t-28 12t-12 28t12 28t28 12t28 -12t12 -28z" />
<glyph unicode="&#x5c2;" horiz-adv-x="0" d="M40 582q0 -16 -12 -28t-28 -12t-28 12t-12 28t12 28t28 12t28 -12t12 -28z" />
<glyph unicode="&#x5d0;" horiz-adv-x="553" d="M503 0h-182l-64 163l-15 -20v-143h-175v291l81 77l-98 185h182l65 -153l15 21v132h175v-277l-81 -75z" />
<glyph unicode="&#x5d1;" horiz-adv-x="510" d="M475 0h-435v170h214v213h-204v170h384v-383h41v-170z" />
<glyph unicode="&#x5d2;" horiz-adv-x="440" d="M418 0h-173l-20 191h-11l-24 -191h-165l54 266h129l-17 117h-71v170h220z" />
<glyph unicode="&#x5d3;" horiz-adv-x="490" d="M455 383h-41v-383h-180v383h-214v170h435v-170z" />
<glyph unicode="&#x5d4;" horiz-adv-x="535" d="M485 0h-180v383h-255v170h435v-553zM230 0h-180v308h180v-308z" />
<glyph unicode="&#x5d5;" horiz-adv-x="280" d="M230 0h-180v553h180v-553z" />
<glyph unicode="&#x5d6;" horiz-adv-x="395" d="M355 383h-64q-8 -28 -4 -69l26 -314h-180l-26 312q-3 47 7 71h-84v170h325v-170z" />
<glyph unicode="&#x5d7;" horiz-adv-x="535" d="M485 0h-180v383h-75v-383h-180v553h435v-553z" />
<glyph unicode="&#x5d8;" horiz-adv-x="535" d="M485 0h-435v553h180v-383h75v213h-51l23 170h118q37 0 63.5 -25t26.5 -60v-468z" />
<glyph unicode="&#x5d9;" horiz-adv-x="310" d="M270 200h-180v183h-65v170h245v-353z" />
<glyph unicode="&#x5da;" horiz-adv-x="464" d="M414 553v-653h-180v483h-204v170h384z" />
<glyph unicode="&#x5db;" horiz-adv-x="504" d="M454 553v-468q0 -35 -26.5 -60t-63.5 -25h-319v170h229v213h-229v170h409z" />
<glyph unicode="&#x5dc;" horiz-adv-x="469" d="M429 158q0 -65 -48.5 -111.5t-116.5 -46.5h-189v170h174v213h-229v243h180v-70h229v-398z" />
<glyph unicode="&#x5dd;" horiz-adv-x="555" d="M505 0h-435v383h-40v170h475v-553zM325 170v213h-75v-213h75z" />
<glyph unicode="&#x5de;" horiz-adv-x="525" d="M480 0h-225v170h45v213h-61l-30 -383h-175l30 383h-34v170h195v-50l35 50h130q37 0 63.5 -25t26.5 -60v-468z" />
<glyph unicode="&#x5df;" horiz-adv-x="320" d="M270 -100h-180v483h-50v170h230v-653z" />
<glyph unicode="&#x5e0;" horiz-adv-x="379" d="M329 553v-468q0 -35 -26.5 -60t-63.5 -25h-219v170h129v213h-79v170h259z" />
<glyph unicode="&#x5e1;" horiz-adv-x="510" d="M485 553l-34 -471q-2 -34 -27.5 -58t-62.5 -24h-293l-43 553h460zM298 383h-81l19 -213h44z" />
<glyph unicode="&#x5e2;" horiz-adv-x="533" d="M513 553l-34 -470q-2 -35 -26.5 -59t-61.5 -24h-356v170h63l-39 383h179l31 -383h40l29 383h175z" />
<glyph unicode="&#x5e3;" horiz-adv-x="525" d="M475 -100h-180v483h-75v-182h-180v352h435v-653z" />
<glyph unicode="&#x5e4;" horiz-adv-x="535" d="M485 85q0 -35 -26.5 -60t-63.5 -25h-345v170h255v213h-75v-123h-180v293h435v-468z" />
<glyph unicode="&#x5e5;" horiz-adv-x="500" d="M475 320l-255 -146v-274h-180v653h180v-182l75 49v133h180v-233z" />
<glyph unicode="&#x5e6;" horiz-adv-x="481" d="M456 553l-23 -289h-68l67 -105v-159h-389v170h189l-212 383h194l67 -159h7l1 159h167z" />
<glyph unicode="&#x5e7;" horiz-adv-x="510" d="M470 169q0 -66 -48.5 -117.5t-116.5 -51.5h-65v170h50v213h-255v170h435v-384zM215 -100h-180v407h180v-407z" />
<glyph unicode="&#x5e8;" horiz-adv-x="450" d="M400 0h-180v383h-200v170h240q58 0 99 -35.5t41 -86.5v-431z" />
<glyph unicode="&#x5e9;" horiz-adv-x="688" d="M673 553l-34 -468q-3 -41 -29.5 -63t-61.5 -22h-482l-41 553h174l16 -214h38l13 214h170l-22 -322h-189l4 -61h239l30 383h175z" />
<glyph unicode="&#x5ea;" horiz-adv-x="575" d="M525 0h-180v383h-75v-383h-230v170h50v213h-40v170h475v-553z" />
<glyph unicode="&#x5f3;" horiz-adv-x="240" d="M190 407l-140 -54v245h140v-191z" />
<glyph unicode="&#x5f4;" horiz-adv-x="415" d="M365 407l-140 -54v245h140v-191zM190 407l-140 -54v245h140v-191z" />
<glyph unicode="&#x2000;" horiz-adv-x="405" />
<glyph unicode="&#x2001;" horiz-adv-x="811" />
<glyph unicode="&#x2002;" horiz-adv-x="405" />
<glyph unicode="&#x2003;" horiz-adv-x="811" />
<glyph unicode="&#x2004;" horiz-adv-x="270" />
<glyph unicode="&#x2005;" horiz-adv-x="202" />
<glyph unicode="&#x2006;" horiz-adv-x="135" />
<glyph unicode="&#x2007;" horiz-adv-x="135" />
<glyph unicode="&#x2008;" horiz-adv-x="101" />
<glyph unicode="&#x2009;" horiz-adv-x="162" />
<glyph unicode="&#x200a;" horiz-adv-x="45" />
<glyph unicode="&#x2010;" horiz-adv-x="455" d="M405 226h-355v126h355v-126z" />
<glyph unicode="&#x2011;" horiz-adv-x="455" d="M405 226h-355v126h355v-126z" />
<glyph unicode="&#x2012;" horiz-adv-x="455" d="M405 226h-355v126h355v-126z" />
<glyph unicode="&#x2013;" horiz-adv-x="455" d="M405 226h-355v126h355v-126z" />
<glyph unicode="&#x2014;" horiz-adv-x="630" d="M580 251h-530v125h530v-125z" />
<glyph unicode="&#x2018;" horiz-adv-x="240" d="M190 358h-140v191l140 54v-245z" />
<glyph unicode="&#x2019;" horiz-adv-x="240" d="M190 407l-140 -54v245h140v-191z" />
<glyph unicode="&#x201a;" horiz-adv-x="231" d="M173 7l-48 -122h-64l36 115h-39v127h115v-120z" />
<glyph unicode="&#x201c;" horiz-adv-x="415" d="M365 358h-140v191l140 54v-245zM190 358h-140v191l140 54v-245z" />
<glyph unicode="&#x201d;" horiz-adv-x="415" d="M365 407l-140 -54v245h140v-191zM190 407l-140 -54v245h140v-191z" />
<glyph unicode="&#x201e;" horiz-adv-x="369" d="M160 7l-53 -122h-70l40 115h-43v127h126v-120zM334 7l-53 -122h-70l40 115h-43v127h126v-120z" />
<glyph unicode="&#x2020;" horiz-adv-x="475" d="M435 328h-129v-328h-138v328h-128v125h128v146h138v-146h129v-125z" />
<glyph unicode="&#x2021;" horiz-adv-x="475" d="M435 0h-129v-146h-138v146h-128v125h128v203h-128v125h128v146h138v-146h129v-125h-129v-203h129v-125z" />
<glyph unicode="&#x2022;" horiz-adv-x="461" d="M411 267q0 -74 -53 -127t-128 -53q-74 0 -127 53t-53 127q0 75 53 128t127 53q75 0 128 -53t53 -128z" />
<glyph unicode="&#x2026;" horiz-adv-x="830" d="M198 0h-118v118h118v-118zM474 0h-118v118h118v-118zM750 0h-118v118h118v-118z" />
<glyph unicode="&#x202f;" horiz-adv-x="162" />
<glyph unicode="&#x2030;" horiz-adv-x="863" d="M162 343v61q0 27 -24 27q-25 0 -25 -27v-61q0 -28 25 -28q24 0 24 28zM489 96v61q0 28 -25 28q-24 0 -24 -28v-61q0 -27 24 -27q25 0 25 27zM750 96v61q0 28 -25 28q-24 0 -24 -28v-61q0 -27 24 -27q25 0 25 27zM244 340q0 -48 -30.5 -73t-75.5 -25t-75.5 25t-30.5 73v67 q0 47 30.5 72t75.5 25q44 0 75 -25t31 -72v-67zM464 500l-238 -500h-88l238 500h88zM570 93q0 -47 -30.5 -72t-75.5 -25q-44 0 -75 25t-31 72v67q0 48 30.5 73t75.5 25t75.5 -25t30.5 -73v-67zM831 93q0 -47 -30.5 -72t-75.5 -25q-44 0 -75 25t-31 72v67q0 48 30.5 73 t75.5 25t75.5 -25t30.5 -73v-67z" />
<glyph unicode="&#x2039;" horiz-adv-x="276" d="M236 83h-107l-97 130l97 136h107l-100 -135z" />
<glyph unicode="&#x203a;" horiz-adv-x="276" d="M245 213l-97 -130h-108l100 131l-99 135h107z" />
<glyph unicode="&#x205f;" horiz-adv-x="202" />
<glyph unicode="&#x20aa;" horiz-adv-x="893" d="M843 122q0 -51 -41 -86.5t-99 -35.5h-445v347h170v-186h245v392h170v-431zM635 207h-170v185h-245v-392h-170v553h585v-346z" />
<glyph unicode="&#x20ac;" horiz-adv-x="489" d="M459 161q-14 -81 -65.5 -123t-126.5 -42q-77 0 -128 44t-60 119h-54v73h50v44h-50v72h54q10 74 61 118t127 44q75 0 126.5 -42t65.5 -123h-127q-13 54 -64 54q-52 0 -62 -51h76v-72h-82v-44h82v-73h-77q11 -52 63 -52q51 0 64 54h127z" />
<glyph unicode="&#x2122;" horiz-adv-x="830" d="M301 530h-100v-273h-83v273h-100v69h283v-69zM772 257h-83v234l-3 1l-83 -235h-64l-83 234h-4v-234h-83v342h124l77 -214h2l76 214h124v-342z" />
<glyph unicode="&#x2212;" horiz-adv-x="455" d="M405 226h-355v126h355v-126z" />
<glyph unicode="&#x221a;" horiz-adv-x="674" d="M624 276q0 -119 -84 -203t-203 -84t-203 84t-84 203t84 203t203 84t203 -84t84 -203z" />
<glyph unicode="&#xe000;" horiz-adv-x="430" d="M0 430h430v-430h-430v430z" />
<glyph unicode="&#xfb01;" horiz-adv-x="461" d="M267 337h-83v-337h-117v337h-57v100h56v42q0 70 30 99.5t96 29.5h74v-100h-36q-28 0 -37 -7.5t-9 -27.5v-36h83v-100zM408 0h-117v437h117v-437zM408 495h-117v113h117v-113z" />
<glyph unicode="&#xfb02;" horiz-adv-x="461" d="M267 337h-83v-337h-117v337h-57v100h56v42q0 70 30 99.5t96 29.5h74v-100h-36q-28 0 -37 -7.5t-9 -27.5v-36h83v-100zM408 0h-117v600h117v-600z" />
<glyph unicode="&#xfb1f;" />
<glyph unicode="&#xfb2a;" horiz-adv-x="688" d="M673 553l-34 -468q-3 -41 -29.5 -63t-61.5 -22h-482l-41 553h174l16 -214h38l13 214h170l-22 -322h-189l4 -61h239l30 383h175zM674 624q0 -16 -12 -28t-28 -12t-28 12t-12 28t12 28t28 12t28 -12t12 -28z" />
<glyph unicode="&#xfb2b;" horiz-adv-x="688" d="M673 553l-34 -468q-3 -41 -29.5 -63t-61.5 -22h-482l-41 553h174l16 -214h38l13 214h170l-22 -322h-189l4 -61h239l30 383h175zM102 624q0 -16 -12 -28t-28 -12t-28 12t-12 28t12 28t28 12t28 -12t12 -28z" />
<glyph unicode="&#xfb35;" horiz-adv-x="280" d="M230 0h-180v553h180v-553zM12 283q0 17 -12 28.5t-28 11.5t-28 -11.5t-12 -28.5t12 -28.5t28 -11.5t28 11.5t12 28.5z" />
<glyph unicode="&#xfb4b;" horiz-adv-x="280" d="M230 0h-180v553h180v-553zM129 624q0 -16 -11.5 -28t-28.5 -12t-28.5 12t-11.5 28t11.5 28t28.5 12t28.5 -12t11.5 -28z" />
<glyph horiz-adv-x="0" />
<glyph horiz-adv-x="235" />
<glyph />
<glyph />
<glyph />
<glyph />
<glyph />
<glyph />
<glyph />
<glyph />
<glyph />
<glyph horiz-adv-x="160" />
<glyph />
<glyph />
<glyph />
<glyph horiz-adv-x="160" />
<glyph />
<glyph />
<glyph />
<glyph />
<glyph />
<glyph />
<glyph />
<glyph />
<glyph />
<glyph />
<glyph />
<glyph />
<glyph />
<glyph />
<glyph />
<glyph />
<glyph />
<glyph />
<glyph />
<glyph />
<glyph />
<glyph />
<glyph />
<glyph />
<glyph />
<glyph />
<glyph />
<glyph />
<glyph />
<glyph />
<glyph />
<glyph />
<glyph />
<glyph />
<glyph />
<glyph />
<glyph />
<glyph />
<glyph />
<glyph />
<glyph />
<glyph />
<glyph />
<glyph />
<glyph />
<glyph />
<glyph />
<glyph />
<glyph />
<glyph />
<glyph />
<glyph horiz-adv-x="560" d="M329 19q0 13 -12 13t-12 -13q0 -14 12 -14t12 14zM104 -8h-8v30q0 3 -1 5t-3 3h-1h-14v-7h8v-8h-15v23h22q12 -4 12 -15v-31zM149 0h-38v30h-4v8h12v-31h22v15l-2 6l-9 -9l-6 5l14 14q11 -4 11 -15v-23zM175 0h-19v7h12v23h-8v8h15v-38zM197 0h-7v30h-8v8h15v-38zM239 23 v-23h-34v7h26v14l-5 9h-14v-7h8v-8h-15v23h22q12 -4 12 -15zM254 -8h-4v53h4v-53zM295 30h-23v-7h19v-8h-18v-15h-8v38h30v-8zM336 19q0 -8 -5.5 -14t-13.5 -6t-13.5 6t-5.5 14t5.5 13.5t13.5 5.5t13.5 -5.5t5.5 -13.5zM377 0h-7l-19 26v-26h-7v38h7l19 -27v27h7v-38z M417 30h-13v-30h-8v30h-13v8h34v-8zM452 0h-30v38h31v-8h-23v-7h19v-8h-19v-7h22v-8zM490 30h-23v-7h20v-8h-19v-15h-8v38h30v-8zM490 187l-47 -66l-289 -14l-37 -10l-19 -18l-28 9l28 75l56 64l308 16l-37 185l-56 61l-168 19l-15 -56l5 -28l47 -19h47l37 10l19 -112 l-84 -28l-56 19l-56 -10l-19 -19h-13l-15 19l28 29l28 8l-37 56l18 84l38 56l-47 28l-9 28l28 122l28 -10l9 -28l37 -18l174 -19l54 -56l43 -149v-228z" />
</font>
</defs>
</svg>
