<?xml version="1.0" standalone="no"?>
<!DOCTYPE svg PUBLIC "-//W3C//DTD SVG 1.1//EN" "http://www.w3.org/Graphics/SVG/1.1/DTD/svg11.dtd" >
<svg xmlns="http://www.w3.org/2000/svg">
<metadata></metadata>
<defs>
<font id="adumalight" horiz-adv-x="1000" >
<font-face units-per-em="1000" ascent="700" descent="-300" />
<missing-glyph horiz-adv-x="235" />
<glyph unicode=" "  horiz-adv-x="235" />
<glyph unicode="&#x09;" horiz-adv-x="235" />
<glyph unicode="&#xa0;" horiz-adv-x="235" />
<glyph unicode="!" horiz-adv-x="165" d="M115 187l-20 -57h-25l-20 57v366h65v-366zM115 0h-65v69h65v-69z" />
<glyph unicode="&#x22;" horiz-adv-x="250" d="M200 427l-55 -30v191h55v-161zM105 427l-55 -30v191h55v-161z" />
<glyph unicode="#" horiz-adv-x="410" d="M395 456l-10 -55h-47l-42 -247h49l-10 -54h-47l-18 -100h-64l16 100h-84l-17 -100h-65l17 100h-48l10 54h47l41 247h-48l9 55h49l17 97h64l-17 -97h85l17 97h63l-15 -97h48zM273 401h-84l-42 -247h84z" />
<glyph unicode="$" horiz-adv-x="385" d="M335 127q0 -46 -37 -91t-88 -45v-76h-46v78q-42 0 -78 42t-36 93v15h65v-15q0 -34 21 -58t56 -24q29 0 53.5 21t24.5 66q0 54 -56 96l-108 85q-56 44 -56 114q0 50 37 90.5t77 40.5v54h45v-53q51 0 88.5 -42.5t37.5 -89.5h-65q0 33 -22 56t-55 23q-28 0 -53 -20.5 t-25 -56.5q0 -23 10 -39.5t43 -42.5l77 -60q90 -70 90 -161z" />
<glyph unicode="%" horiz-adv-x="424" d="M178 388q0 -23 -18.5 -40t-45.5 -17t-45.5 17t-18.5 40v114q0 24 18.5 41t45.5 17t45.5 -17t18.5 -40v-115zM344 554l-196 -555h-64l195 555h65zM374 47q0 -23 -18.5 -40t-45.5 -17t-45.5 17t-18.5 40v114q0 24 18.5 41t45.5 17t45.5 -17t18.5 -41v-114zM138 388v115 q0 9 -7.5 15.5t-16.5 6.5t-16.5 -6.5t-7.5 -15.5v-115q0 -9 7.5 -15.5t16.5 -6.5t16.5 6.5t7.5 15.5zM334 47v114q0 10 -7.5 16.5t-16.5 6.5t-16.5 -6.5t-7.5 -16.5v-114q0 -9 7.5 -16t16.5 -7t16.5 7t7.5 16z" />
<glyph unicode="&#x26;" horiz-adv-x="554" d="M352 95q-28 26 -76.5 91.5t-76.5 112.5q-55 -31 -82 -65t-27 -91q0 -50 38 -78t90 -28q79 0 134 58zM314 496q0 30 -17 48.5t-50 18.5q-66 0 -66 -87q0 -58 36 -109q43 23 70 58t27 71zM526 -8q-75 3 -139 65q-73 -65 -171 -65q-76 0 -128 40t-52 114q0 63 29.5 103.5 t107.5 93.5q-47 70 -47 139q0 60 33 93t90 33q52 0 86 -31t34 -84q0 -38 -21 -72.5t-41 -51.5t-61 -48q13 -18 42 -62t51.5 -74t45.5 -55q47 72 62 152l52 -10q-21 -96 -76 -177q50 -50 103 -53v-50z" />
<glyph unicode="'" horiz-adv-x="155" d="M105 427l-55 -30v191h55v-161z" />
<glyph unicode="(" horiz-adv-x="297" d="M212 -74h-74q-63 219 -63 351q0 131 63 350h73q-2 -7 -12 -45t-16.5 -67t-15.5 -71.5t-13.5 -85.5t-4.5 -81q0 -82 22 -191t41 -160z" />
<glyph unicode=")" horiz-adv-x="297" d="M222 277q0 -132 -63 -351h-74q19 55 41 162.5t22 188.5q0 38 -4.5 81t-13.5 85.5t-15.5 71.5t-16.5 67t-12 45h73q63 -219 63 -350z" />
<glyph unicode="*" horiz-adv-x="240" d="M205 477l-15 -26l-55 33v-65h-30v65l-55 -33l-15 26l56 32l-56 32l15 26l55 -32v64h30v-64l55 32l15 -26l-56 -32z" />
<glyph unicode="+" horiz-adv-x="415" d="M365 261h-130v-130h-55v130h-130v55h130v130h55v-130h130v-55z" />
<glyph unicode="," horiz-adv-x="155" d="M105 -55l-55 -27v162h55v-135z" />
<glyph unicode="-" horiz-adv-x="415" d="M365 261h-315v55h315v-55z" />
<glyph unicode="." horiz-adv-x="155" d="M105 0h-55v80h55v-80z" />
<glyph unicode="/" horiz-adv-x="257" d="M233 602l-145 -677h-64l146 677h63z" />
<glyph unicode="0" horiz-adv-x="385" d="M335 125q0 -55 -41 -95t-101 -40q-61 0 -102 40t-41 95v303q0 55 41 95t101 40q61 0 102 -40t41 -95v-303zM270 125v303q0 35 -23.5 57.5t-53.5 22.5q-31 0 -54.5 -22.5t-23.5 -57.5v-303q0 -35 23.5 -57.5t53.5 -22.5q31 0 54.5 22.5t23.5 57.5z" />
<glyph unicode="1" horiz-adv-x="275" d="M200 0h-65v492l-75 -58v62l75 57h65v-553z" />
<glyph unicode="2" horiz-adv-x="415" d="M355 0h-290v71l185 245q31 39 31 65v46q0 32 -21.5 56.5t-51.5 24.5q-28 0 -52.5 -20.5t-24.5 -60.5v-45h-66v45q0 56 41 96t101 40q66 0 103 -38.5t37 -97.5v-46q0 -12 -5 -27.5t-10.5 -27.5t-18 -31t-18 -26.5t-20.5 -28t-17 -22.5l-121 -159h218v-59z" />
<glyph unicode="3" horiz-adv-x="385" d="M335 132q0 -61 -40 -101.5t-102 -40.5q-63 0 -103 39.5t-40 96.5v24h65v-24q0 -35 23 -58t54 -23q30 0 54 21.5t24 64.5v44q0 28 -19.5 55.5t-55.5 27.5h-5v52h12q33 0 50.5 27.5t17.5 49.5v40q0 34 -21.5 57.5t-55.5 23.5q-33 0 -55.5 -24t-22.5 -54v-18h-65v17 q0 54 41 94t101 40q63 0 103 -40.5t40 -94.5v-49q0 -55 -59 -99q24 -13 41.5 -43t17.5 -58v-47z" />
<glyph unicode="4" horiz-adv-x="338" d="M318 151h-40v-151h-65v151h-188v57l93 345h68l-95 -350h122v107h65v-107h40v-52z" />
<glyph unicode="5" horiz-adv-x="385" d="M335 121q0 -50 -40.5 -90.5t-101.5 -40.5q-63 0 -103 40.5t-40 91.5v28h65v-28q0 -34 25 -55.5t53 -21.5q30 0 53.5 22.5t23.5 52.5v102q0 33 -22 56t-58 23q-24 0 -45 -12t-30 -29h-65v293h269v-55h-204v-169q35 28 75 28q61 0 103 -38.5t42 -100.5v-97z" />
<glyph unicode="6" horiz-adv-x="401" d="M351 156q0 -79 -39 -122.5t-106 -43.5q-70 0 -113 43t-43 121q0 18 5.5 41t9.5 34t17 42.5t14 33.5l95 248h70l-97 -251q22 10 57 10q57 0 93.5 -41.5t36.5 -114.5zM285 155q0 46 -22 75.5t-62 29.5t-62.5 -29t-22.5 -76q0 -48 25 -76.5t65 -28.5t59.5 28.5t19.5 76.5z " />
<glyph unicode="7" horiz-adv-x="348" d="M323 494l-160 -494h-69l163 498h-167v-62h-65v117h298v-59z" />
<glyph unicode="8" horiz-adv-x="395" d="M345 151q0 -77 -40 -119t-108 -42t-107.5 42t-39.5 119q0 49 14 79t50 56q-33 25 -44.5 52.5t-11.5 71.5q0 69 40 111t100 42t99.5 -42t39.5 -111q0 -44 -11.5 -71.5t-44.5 -52.5q36 -26 50 -56t14 -79zM271 406q0 40 -18 70.5t-56 30.5t-55.5 -30t-17.5 -71 q0 -40 18 -68t56 -28t55.5 27.5t17.5 68.5zM279 153q0 42 -21 72.5t-61 30.5t-60.5 -30.5t-20.5 -72.5q0 -43 21 -75t61 -32t60.5 32t20.5 75z" />
<glyph unicode="9" horiz-adv-x="401" d="M351 399q0 -18 -5.5 -41t-9.5 -34t-17 -42.5t-14 -33.5l-95 -248h-69l96 251q-22 -10 -57 -10q-57 0 -93.5 41.5t-36.5 114.5q0 79 39 122.5t106 43.5q69 0 112.5 -43.5t43.5 -120.5zM285 398q0 48 -25 76.5t-65 28.5t-59.5 -28.5t-19.5 -76.5q0 -46 22 -75.5t62 -29.5 t62.5 29t22.5 76z" />
<glyph unicode=":" horiz-adv-x="155" d="M105 261l-55 -1v83h55v-82zM105 0h-55v80h55v-80z" />
<glyph unicode=";" horiz-adv-x="155" d="M105 260h-55v83h55v-83zM105 -55l-55 -27v162h55v-135z" />
<glyph unicode="&#x3c;" horiz-adv-x="561" d="M526 249h-388l100 -100h-76l-132 132l132 133h77l-100 -100h387v-65z" />
<glyph unicode="=" horiz-adv-x="365" d="M315 316h-265v55h265v-55zM315 206h-265v55h265v-55z" />
<glyph unicode="&#x3e;" horiz-adv-x="561" d="M531 282l-132 -133h-76l100 100h-388v65h387l-100 100h77z" />
<glyph unicode="?" horiz-adv-x="342" d="M307 431q0 -36 -31 -80l-79 -116v-106h-65v121l88 127q21 34 21 54q0 35 -23.5 57t-54.5 22q-27 0 -49.5 -15.5t-22.5 -41.5v-26h-66v26q0 46 41.5 78t96.5 32q61 0 102.5 -39.5t41.5 -92.5zM197 0h-65v69h65v-69z" />
<glyph unicode="@" horiz-adv-x="664" d="M422 359q0 30 -21.5 55.5t-46.5 25.5q-60 0 -103 -66t-43 -132q0 -38 21 -61.5t52 -23.5q37 0 70.5 35t52 81.5t18.5 85.5zM624 351q0 -93 -60.5 -165t-127.5 -72q-23 0 -39 15t-18 43l-1 -2q-56 -56 -109 -56q-51 0 -82 35.5t-31 87.5q0 94 57.5 170t144.5 76 q65 0 90 -70l22 54h45l-82 -245q-11 -31 -11 -46q0 -24 22 -24q50 0 93.5 65t43.5 137q0 96 -69.5 156.5t-165.5 60.5q-111 0 -187 -81t-76 -194q0 -110 78 -189t187 -79q63 0 123 31t97 84h43q-39 -70 -110.5 -110.5t-152.5 -40.5q-130 0 -219 90.5t-89 219.5q0 126 90 216 t214 90q118 0 199 -73t81 -184z" />
<glyph unicode="A" horiz-adv-x="507" d="M354 241l-99 313h-2l-99 -313h200zM486 0h-59l-60 196h-227l-61 -196h-58l191 599h84z" />
<glyph unicode="B" horiz-adv-x="554" d="M432 168q0 55 -41.5 88t-128.5 33h-124v-244h142q79 0 115.5 29.5t36.5 93.5zM408 445q0 63 -38 86t-124 23h-108v-220h130q140 0 140 111zM487 164q0 -89 -55 -126.5t-158 -37.5h-191v599h168q110 0 161 -36t51 -114q0 -49 -20 -79t-65 -50q109 -48 109 -156z" />
<glyph unicode="C" horiz-adv-x="507" d="M474 173q-37 -181 -203 -181q-108 0 -169.5 83.5t-61.5 224.5t61.5 224.5t169.5 83.5q76 0 123.5 -47.5t67.5 -126.5l-50 -11q-41 140 -146 140q-85 0 -128 -73t-43 -190q0 -118 43.5 -190.5t132.5 -72.5q67 0 100.5 39t50.5 107z" />
<glyph unicode="D" horiz-adv-x="554" d="M458 300q0 122 -52.5 188t-151.5 66h-116v-509h116q99 0 151.5 66.5t52.5 188.5zM513 300q0 -62 -15 -115t-45.5 -95t-81.5 -66t-119 -24h-169v599h169q67 0 118.5 -24t82 -66t45.5 -94.5t15 -114.5z" />
<glyph unicode="E" horiz-adv-x="461" d="M441 0h-358v599h342v-45h-287v-220h206v-45h-206v-244h303v-45z" />
<glyph unicode="F" horiz-adv-x="461" d="M435 554h-297v-220h216v-45h-216v-289h-55v599h352v-45z" />
<glyph unicode="G" horiz-adv-x="554" d="M481 0h-47v59h-2q-27 -36 -64 -51.5t-98 -15.5q-103 0 -166.5 81t-63.5 227q0 144 66 226t166 82q81 0 134 -47.5t69 -126.5l-52 -9q-15 62 -53 100t-101 38q-79 0 -126.5 -71.5t-47.5 -191.5q0 -263 191 -263q63 0 102 41.5t39 102.5v55h-151v45h205v-281z" />
<glyph unicode="H" horiz-adv-x="599" d="M516 0h-55v289h-323v-289h-55v599h55v-265h323v265h55v-599z" />
<glyph unicode="I" horiz-adv-x="231" d="M143 0h-55v599h55v-599z" />
<glyph unicode="J" horiz-adv-x="369" d="M274 126q0 -65 -37 -99.5t-102 -34.5q-52 0 -81.5 18.5t-53.5 60.5l44 26q20 -33 39 -46.5t56 -13.5q80 0 80 106v456h55v-473z" />
<glyph unicode="K" horiz-adv-x="507" d="M502 0h-61l-190 330l-113 -130v-200h-55v599h55v-325l274 325h67l-193 -229z" />
<glyph unicode="L" horiz-adv-x="415" d="M405 0h-322v599h55v-554h267v-45z" />
<glyph unicode="M" horiz-adv-x="691" d="M608 0h-54v554h-2l-180 -554h-52l-181 554h-1v-554h-55v599h96l165 -508h2l166 508h96v-599z" />
<glyph unicode="N" horiz-adv-x="599" d="M516 0h-56l-321 554h-1v-554h-55v599h92l285 -499h1v499h55v-599z" />
<glyph unicode="O" horiz-adv-x="554" d="M458 300q0 125 -49 194t-133 69t-132.5 -69t-48.5 -194t48.5 -194t132.5 -69t133 69t49 194zM513 300q0 -136 -63 -222t-174 -86q-110 0 -173 86t-63 222t63 222t173 86q111 0 174 -86t63 -222z" />
<glyph unicode="P" horiz-adv-x="507" d="M412 432q0 122 -148 122h-126v-244h126q148 0 148 122zM466 432q0 -78 -49.5 -122t-152.5 -44h-126v-266h-55v599h181q202 0 202 -167z" />
<glyph unicode="Q" horiz-adv-x="554" d="M458 300q0 125 -49 194t-133 69t-132.5 -69t-48.5 -194t48.5 -194t132.5 -69q56 0 95 29q-19 33 -36 46.5t-43 17.5v54q70 -12 116 -79q50 67 50 195zM535 -50q-98 0 -141 76q-49 -34 -118 -34q-110 0 -173 86t-63 222t63 222t173 86q111 0 174 -86t63 -222 q0 -159 -81 -243q18 -33 40.5 -45t62.5 -12v-50z" />
<glyph unicode="R" horiz-adv-x="554" d="M415 437q0 56 -33 86.5t-96 30.5h-148v-235h148q60 0 94.5 31.5t34.5 86.5zM492 0h-60l-139 274h-155v-274h-55v599h203q87 0 135.5 -44t48.5 -118q0 -122 -125 -153z" />
<glyph unicode="S" horiz-adv-x="461" d="M422 150q0 -73 -52.5 -115.5t-129.5 -42.5q-86 0 -137 38.5t-76 121.5l50 16q17 -68 58.5 -99.5t112.5 -31.5q56 0 88 32.5t32 86.5q0 44 -33.5 72.5t-81 45t-95.5 34.5t-81.5 53.5t-33.5 90.5q0 69 46 112.5t127 43.5q71 0 121 -37.5t71 -106.5l-48 -14 q-36 113 -144 113q-54 0 -86 -29.5t-32 -81.5q0 -34 23 -58t99 -53q123 -46 162.5 -85t39.5 -106z" />
<glyph unicode="T" horiz-adv-x="461" d="M436 554h-178v-554h-55v554h-177v45h410v-45z" />
<glyph unicode="U" horiz-adv-x="599" d="M516 196q0 -204 -216 -204q-217 0 -217 204v403h55v-408q0 -84 39.5 -119t122.5 -35q82 0 121.5 35t39.5 119v408h55v-403z" />
<glyph unicode="V" horiz-adv-x="461" d="M455 599l-199 -599h-55l-194 599h58l162 -521h2l168 521h58z" />
<glyph unicode="W" horiz-adv-x="691" d="M677 599l-160 -599h-55l-117 493h-1l-117 -493h-55l-159 599h56l128 -499h1l120 499h55l117 -499h1l131 499h55z" />
<glyph unicode="X" horiz-adv-x="461" d="M452 0h-65l-158 262l-154 -262h-65l187 314l-176 285h64l144 -239l140 239h65l-173 -285z" />
<glyph unicode="Y" horiz-adv-x="461" d="M445 599l-190 -345v-254h-55v254l-183 345h61l148 -296l157 296h62z" />
<glyph unicode="Z" horiz-adv-x="461" d="M423 0h-385v45l313 509h-287v45h355v-46l-313 -508h317v-45z" />
<glyph unicode="[" horiz-adv-x="225" d="M190 -150h-140v853h140v-55h-75v-743h75v-55z" />
<glyph unicode="\" horiz-adv-x="257" d="M169 -75l-145 677h63l146 -677h-64z" />
<glyph unicode="]" horiz-adv-x="225" d="M175 -150h-140v55h75v743h-75v55h140v-853z" />
<glyph unicode="^" horiz-adv-x="498" d="M452 246h-55l-150 294l-146 -294h-55l181 353h44z" />
<glyph unicode="_" horiz-adv-x="415" d="M415 -104h-415v42h415v-42z" />
<glyph unicode="`" horiz-adv-x="184" d="M144 480h-42l-114 114h64z" />
<glyph unicode="a" horiz-adv-x="415" d="M295 103v141q-95 -21 -145.5 -44t-64.5 -43.5t-14 -51.5q0 -34 21.5 -53.5t56.5 -19.5t74.5 19t71.5 52zM345 0h-48v52q-41 -32 -75 -46t-82 -14q-52 0 -85 30t-33 83q0 22 4 39.5t14.5 32.5t20.5 25.5t32 21t38 17t48.5 15t54 13.5l64.5 15v30q0 44 -22.5 65t-76.5 21 q-77 0 -125 -78l-33 20q52 98 160 98q74 0 109 -32t35 -103v-305z" />
<glyph unicode="b" horiz-adv-x="461" d="M382 209q0 87 -34.5 139t-99.5 52q-34 0 -70.5 -26t-51.5 -51v-213q29 -38 58 -58t72 -20q62 0 94 49.5t32 127.5zM432 218q0 -110 -45 -168t-129 -58q-93 0 -138 64l-9 -56h-35v599h50v-224q33 35 63 50t72 15q75 0 123 -63t48 -159z" />
<glyph unicode="c" horiz-adv-x="415" d="M385 102q-65 -110 -169 -110q-89 0 -137.5 61.5t-48.5 162.5q0 108 50.5 166t135.5 58q115 0 158 -117l-46 -13q-41 90 -112 90q-136 0 -136 -184q0 -84 36 -134t100 -50q43 0 71.5 21.5t57.5 67.5z" />
<glyph unicode="d" horiz-adv-x="461" d="M335 110v213q-14 25 -51 51t-71 26q-65 0 -99 -52t-34 -139q0 -78 32 -127.5t94 -49.5q42 0 72 20t57 58zM385 0h-35l-8 56q-47 -64 -139 -64q-84 0 -128.5 58t-44.5 168q0 96 47.5 159t122.5 63q42 0 72 -15t63 -50v224h50v-599z" />
<glyph unicode="e" horiz-adv-x="415" d="M330 254q-16 145 -124 146q-41 0 -71 -25t-42 -57t-13 -64h250zM385 97q-35 -58 -72.5 -81.5t-98.5 -23.5q-87 0 -135.5 56.5t-48.5 167.5q0 101 48 162.5t130 61.5q85 0 128.5 -61t43.5 -165h-300q0 -80 34.5 -131t103.5 -51q42 0 68 18t58 69z" />
<glyph unicode="f" horiz-adv-x="231" d="M237 559q-27 9 -49 9q-59 0 -59 -69v-67h88v-40h-88v-392h-49v392h-72v40h72v61q0 115 103 115q12 0 54 -7v-42z" />
<glyph unicode="g" horiz-adv-x="415" d="M352 -39q0 71 -158 71q-68 0 -98 -21t-30 -53q0 -33 33.5 -52t98.5 -19q154 0 154 74zM311 290q0 110 -112 110q-52 0 -82 -29.5t-30 -80.5q0 -53 32 -80.5t80 -27.5q112 0 112 108zM402 -36q0 -52 -46.5 -84.5t-150.5 -32.5q-188 0 -188 102q0 31 16.5 53.5t58.5 38.5v1 q-57 13 -57 57q0 26 20 46.5t45 26.5q-63 42 -63 113t46.5 113t124.5 42q54 0 101 -30q38 38 90 38v-45q-49 0 -69 -20q31 -38 31 -90q0 -76 -46.5 -113.5t-120.5 -37.5q-30 0 -69 13q-40 -14 -40 -41q0 -14 8.5 -21.5t38 -12t86.5 -4.5q184 0 184 -112z" />
<glyph unicode="h" horiz-adv-x="461" d="M393 0h-49v290q0 56 -20 83t-68 27q-8 0 -15.5 -1t-13.5 -2.5t-14 -5t-12.5 -5.5t-13 -8.5t-12.5 -9t-13.5 -11t-13 -11.5t-15 -13.5t-15.5 -14.5v-318h-50v599h50v-235q38 39 71 57.5t77 18.5q127 0 127 -145v-295z" />
<glyph unicode="i" horiz-adv-x="184" d="M117 0h-50v432h50v-432zM117 526h-50v73h50v-73z" />
<glyph unicode="j" horiz-adv-x="184" d="M117 -69q0 -45 -22.5 -64.5t-66.5 -19.5q-25 0 -45 5v41q24 -6 35 -6q49 0 49 45v500h50v-501zM117 526h-50v73h50v-73z" />
<glyph unicode="k" horiz-adv-x="415" d="M397 0h-56l-138 236l-85 -97v-139h-50v599h50v-396l200 229h57l-140 -161z" />
<glyph unicode="l" horiz-adv-x="184" d="M117 0h-50v599h50v-599z" />
<glyph unicode="m" horiz-adv-x="691" d="M623 0h-50v328q0 72 -75 72q-28 0 -68 -25.5t-60 -56.5v-318h-50v328q0 72 -74 72q-29 0 -68.5 -25.5t-59.5 -56.5v-318h-50v432h50v-66q37 40 66.5 57t76.5 17q37 0 66.5 -21.5t38.5 -57.5q67 79 143 79q56 0 85 -30t29 -87v-323z" />
<glyph unicode="n" horiz-adv-x="461" d="M393 0h-49v290q0 56 -20 83t-68 27q-8 0 -15.5 -1t-13.5 -2.5t-14 -5t-12.5 -5.5t-13 -8.5t-12.5 -9t-13.5 -11t-13 -11.5t-15 -13.5t-15.5 -14.5v-318h-50v432h50v-68q38 39 71 57.5t77 18.5q127 0 127 -145v-295z" />
<glyph unicode="o" horiz-adv-x="415" d="M335 216q0 184 -127 184q-128 0 -128 -184t128 -184q127 0 127 184zM385 216q0 -98 -42 -161t-135 -63q-94 0 -136 63t-42 161t42 161t136 63q93 0 135 -63t42 -161z" />
<glyph unicode="p" horiz-adv-x="461" d="M382 222q0 73 -32.5 125.5t-93.5 52.5q-37 0 -64 -18.5t-66 -60.5v-212q15 -25 51.5 -51t70.5 -26q66 0 100 49.5t34 140.5zM432 213q0 -109 -46 -165t-125 -56q-42 0 -72 15t-63 49v-209h-50v585h50v-67h2q51 75 130 75q80 0 127 -66.5t47 -160.5z" />
<glyph unicode="q" horiz-adv-x="461" d="M335 108v211q-55 78 -129 78q-62 0 -94 -49t-32 -127q0 -86 34 -137.5t99 -51.5q34 0 71 25.5t51 50.5zM385 -153h-50v209q-33 -34 -63 -49t-72 -15q-75 0 -122.5 62t-47.5 158q0 109 44.5 167t128.5 58q80 0 139 -64l8 55h35v-581z" />
<glyph unicode="r" horiz-adv-x="276" d="M263 392h-22q-44 0 -85 -44.5t-41 -103.5v-244h-50v432h50v-83h1q18 41 51 66t74 25h22v-48z" />
<glyph unicode="s" horiz-adv-x="369" d="M337 114q0 -56 -44 -89t-105 -33q-110 0 -167 87l36 26q30 -43 59.5 -58t74.5 -15q41 0 68.5 23.5t27.5 58.5q0 34 -26 54t-63.5 29.5t-75 20t-63.5 36.5t-26 68q0 58 39 88t98 30q101 0 149 -78l-38 -27q-49 65 -113 65q-38 0 -61.5 -19t-23.5 -56q0 -29 26 -46 t63.5 -26.5t75 -22t63.5 -41.5t26 -75z" />
<glyph unicode="t" horiz-adv-x="231" d="M217 -1q-3 0 -22 -3.5t-28 -3.5q-52 0 -73 17.5t-21 57.5v325h-65v40h65v141h50v-141h94v-40h-94v-316q0 -44 44 -44q23 0 50 9v-42z" />
<glyph unicode="u" horiz-adv-x="461" d="M393 0h-49v68q-39 -40 -71.5 -58t-76.5 -18q-128 0 -128 145v295h50v-290q0 -56 20 -83t68 -27q8 0 15.5 1t13.5 2.5t14 5t12.5 5.5t13 8.5t12.5 9t13.5 11t13 11.5t15 13.5t15.5 14.5v318h49v-432z" />
<glyph unicode="v" horiz-adv-x="369" d="M357 432l-149 -432h-49l-147 432h53l118 -356h1l120 356h53z" />
<glyph unicode="w" horiz-adv-x="554" d="M547 432l-125 -432h-49l-97 347h-2l-96 -347h-52l-120 432h50l95 -347h2l98 347h49l97 -347h1l98 347h51z" />
<glyph unicode="x" horiz-adv-x="369" d="M360 0h-60l-116 182l-116 -182h-60l146 229l-129 203h60l99 -156l100 156h60l-130 -203z" />
<glyph unicode="y" horiz-adv-x="369" d="M359 432l-161 -463q-24 -67 -53 -94.5t-85 -27.5q-27 0 -47 5v41q45 -6 50 -6q65 0 97 120l-150 425h55l118 -351h2l120 351h54z" />
<glyph unicode="z" horiz-adv-x="369" d="M343 0h-322v32l249 360h-229v40h295v-32l-249 -360h256v-40z" />
<glyph unicode="{" horiz-adv-x="274" d="M239 -150h-57q-36 0 -59.5 23.5t-23.5 55.5v274q0 68 -47 68h-27v60h26q48 0 48 68v225q0 32 23.5 55.5t58.5 23.5h58v-55h-75v-291q0 -23 -12 -37.5t-45 -18.5q57 -15 57 -62v-334h75v-55z" />
<glyph unicode="|" horiz-adv-x="215" d="M140 -150h-65v853h65v-853z" />
<glyph unicode="}" horiz-adv-x="274" d="M249 271h-26q-48 0 -48 -68v-274q0 -32 -23.5 -55.5t-58.5 -23.5h-58v55h75v334q0 47 57 62q-33 4 -45 18.5t-12 37.5v291h-75v55h57q36 0 59.5 -23.5t23.5 -55.5v-225q0 -68 47 -68h27v-60z" />
<glyph unicode="~" horiz-adv-x="498" d="M456 235q-38 -70 -112 -70q-33 0 -99 27q-71 28 -92 28q-17 0 -32.5 -9.5t-24 -19.5t-22.5 -29l-32 35q40 69 112 69q36 0 99 -26q66 -28 92 -28q17 0 32.5 9.5t24 19.5t22.5 29z" />
<glyph unicode="&#xa1;" horiz-adv-x="184" d="M128 -168h-72l15 415h42zM128 357h-72v75h72v-75z" />
<glyph unicode="&#xa2;" horiz-adv-x="461" d="M276 393q-15 7 -37 7q-136 0 -136 -184q0 -115 62 -160zM408 102q-65 -110 -169 -110q-30 0 -48 6l-32 -98h-44l36 112q-98 53 -98 204q0 108 50.5 166t135.5 58q23 0 49 -7l29 89h45l-35 -106q49 -32 70 -93l-46 -13q-17 39 -39 60l-109 -333q14 -5 36 -5q43 0 72 22 t58 67z" />
<glyph unicode="&#xa3;" horiz-adv-x="390" d="M354 462l-41 -40q-34 34 -77 34q-47 0 -72.5 -29t-25.5 -83v-67h101v-46h-101v-176h215v-55h-276v231h-44v46h44v74q0 73 44.5 116.5t114.5 43.5q69 0 118 -49z" />
<glyph unicode="&#xa4;" horiz-adv-x="461" d="M392 300q0 67 -47.5 116.5t-113.5 49.5t-113.5 -49.5t-47.5 -116.5q0 -68 47.5 -117t113.5 -49t113.5 49t47.5 117zM437 125l-32 -31l-46 45q-55 -45 -128 -45q-74 0 -128 45l-47 -45l-31 31l45 45q-45 52 -45 130t45 129l-45 45l31 31l47 -45q52 45 128 45q74 0 128 -45 l46 45l32 -31l-45 -45q45 -52 45 -129q0 -76 -45 -130z" />
<glyph unicode="&#xa5;" horiz-adv-x="461" d="M438 599l-124 -234h87v-40h-108l-38 -71v-10h146v-40h-146v-204h-55v204h-146v40h146v10l-36 71h-110v40h90l-121 234h55l148 -296l157 296h55z" />
<glyph unicode="&#xa6;" horiz-adv-x="242" d="M154 -52h-71v246h71v-246zM154 306h-71v246h71v-246z" />
<glyph unicode="&#xa7;" horiz-adv-x="415" d="M312 216q0 30 -65 100.5t-99 70.5q-20 0 -37.5 -14.5t-17.5 -35.5q0 -33 67.5 -106t95.5 -73q26 0 41 16.5t15 41.5zM354 224q0 -88 -91 -93q46 -53 46 -105q0 -46 -34 -69t-82 -23q-39 0 -73 21t-49 56l35 22q11 -27 35 -45t52 -18q74 0 74 62q0 20 -22 49.5t-54 60 t-64 62t-54 65t-22 60.5q0 39 28 61.5t70 22.5l1 2q-52 39 -52 96q0 43 30.5 70t79.5 27q84 0 123 -82l-33 -21q-33 66 -95 66q-29 0 -46.5 -16.5t-17.5 -49.5q0 -19 22 -45.5t53.5 -54t63.5 -57t54 -62.5t22 -62z" />
<glyph unicode="&#xa8;" horiz-adv-x="184" d="M55 488h-55v78h55v-78zM184 488h-55v78h55v-78z" />
<glyph unicode="&#xa9;" horiz-adv-x="626" d="M410 146q-41 -37 -94 -37q-60 0 -93 40t-33 104t33 104.5t93 40.5q50 0 94 -38l-26 -25q-34 28 -68 28q-86 0 -86 -110q0 -109 86 -109q36 0 68 27zM529 253q0 90 -63.5 154.5t-152.5 64.5q-90 0 -153 -64.5t-63 -154.5t63 -154.5t153 -64.5q89 0 152.5 64.5t63.5 154.5z M570 253q0 -107 -75 -182t-182 -75t-182.5 75.5t-75.5 181.5t75.5 181.5t182.5 75.5t182 -75t75 -182z" />
<glyph unicode="&#xaa;" horiz-adv-x="249" d="M179 412v69q-6 -2 -26.5 -6.5t-35 -9.5t-31.5 -12.5t-26 -19t-9 -25.5q0 -15 11.5 -24.5t30.5 -9.5q24 0 48.5 10.5t37.5 27.5zM221 345h-36v32q-43 -37 -97 -37q-34 0 -56 18.5t-22 49.5q0 25 11.5 43t33.5 28.5t40.5 16.5t46.5 12t37 9v21q0 36 -53 36q-47 0 -77 -40 l-27 16q35 58 108 58q47 0 69 -19t22 -61v-183z" />
<glyph unicode="&#xab;" horiz-adv-x="415" d="M223 88h-55l-100 129l100 127h55l-103 -127zM347 88h-55l-101 129l101 127h55l-104 -127z" />
<glyph unicode="&#xac;" horiz-adv-x="733" d="M643 0h-553v553h553v-553z" />
<glyph unicode="&#xad;" horiz-adv-x="415" d="M365 261h-315v55h315v-55z" />
<glyph unicode="&#xae;" horiz-adv-x="626" d="M374 310q0 21 -15 35.5t-38 14.5h-53v-99h53q23 0 38 14t15 35zM421 112h-46l-64 116h-43v-116h-39v283h96q37 0 63 -24.5t26 -60.5q0 -59 -61 -78zM530 253q0 91 -64 155.5t-153 64.5q-90 0 -153 -64.5t-63 -155.5t63 -155.5t153 -64.5q89 0 153 64.5t64 155.5zM570 253 q0 -107 -75 -182t-182 -75t-182.5 75.5t-75.5 181.5t75.5 181.5t182.5 75.5t182 -75t75 -182z" />
<glyph unicode="&#xaf;" horiz-adv-x="184" d="M215 512h-246v37h246v-37z" />
<glyph unicode="&#xb0;" horiz-adv-x="329" d="M238 394q0 32 -21.5 53.5t-52.5 21.5t-52 -21.5t-21 -53.5t21.5 -54t52.5 -22t52 22t21 54zM281 394q0 -49 -34 -83t-82 -34q-49 0 -83 34t-34 83q0 48 34 82t83 34q48 0 82 -34t34 -82z" />
<glyph unicode="&#xb1;" horiz-adv-x="498" d="M465 0h-432v45h432v-45zM465 233h-194v-153h-44v153h-194v45h194v154h44v-154h194v-45z" />
<glyph unicode="&#xb2;" horiz-adv-x="246" d="M214 200h-182v49l113 130q15 18 15 37q0 38 -37 38t-37 -38h-54q0 40 25.5 63.5t65.5 23.5t65.5 -23.5t25.5 -63.5q0 -31 -32 -69l-85 -98h117v-49z" />
<glyph unicode="&#xb3;" horiz-adv-x="254" d="M223 286q0 -42 -27.5 -65.5t-67.5 -23.5t-68 22t-28 66h54q0 -19 12 -29.5t30 -10.5t29.5 11.5t11.5 31.5q0 19 -11 30.5t-32 11.5h-8v46h8q19 0 29 11t10 28q0 19 -11 29t-27 10q-35 0 -38 -36h-53q1 39 26.5 62t64.5 23q40 0 65.5 -24t25.5 -62q0 -45 -35 -62 q40 -22 40 -69z" />
<glyph unicode="&#xb4;" horiz-adv-x="184" d="M196 594l-114 -114h-42l92 114h64z" />
<glyph unicode="&#xb5;" horiz-adv-x="461" d="M393 0h-49v68q-39 -40 -71.5 -58t-76.5 -18q-51 0 -78 20v-165h-50v585h50v-290q0 -56 20 -83t68 -27q8 0 15.5 1t13.5 2.5t14 5t12.5 5.5t13 8.5t12.5 9t13.5 11t13 11.5t15 13.5t15.5 14.5v318h49v-432z" />
<glyph unicode="&#xb6;" horiz-adv-x="415" d="M417 563h-62v-629h-41v629h-87v-629h-42v345q-72 0 -122 46.5t-50 111.5q0 78 48.5 120t136.5 42h219v-36z" />
<glyph unicode="&#xb7;" horiz-adv-x="192" d="M129 158h-67v67h67v-67z" />
<glyph unicode="&#xb8;" horiz-adv-x="184" d="M167 -108q0 -30 -28 -47.5t-59 -17.5q-46 0 -80 17l12 30q34 -13 49 -13q54 0 54 34q0 16 -11 25t-26 9q-18 0 -36 -8l-13 11l50 68h31l-35 -42l1 -1q13 5 26 5q30 0 47.5 -19t17.5 -51z" />
<glyph unicode="&#xb9;" horiz-adv-x="195" d="M143 200h-54v240l-61 -54v61l61 53h54v-300z" />
<glyph unicode="&#xba;" horiz-adv-x="249" d="M193 474q0 48 -15.5 71.5t-52.5 23.5q-39 0 -54.5 -23.5t-15.5 -71.5q0 -50 15.5 -73t54.5 -23q38 0 53 23.5t15 72.5zM240 474q0 -59 -27 -96.5t-88 -37.5t-89 37.5t-28 96.5t28 96.5t89 37.5t88 -37.5t27 -96.5z" />
<glyph unicode="&#xbb;" horiz-adv-x="415" d="M224 214l-101 -126h-55l104 126l-104 130h55zM347 214l-100 -126h-55l103 126l-103 130h55z" />
<glyph unicode="&#xbc;" horiz-adv-x="567" d="M143 200h-54v240l-61 -54v61l61 53h54v-300zM419 500l-236 -500h-57l236 500h57zM539 43h-28v-43h-52v43h-122v50l103 207h59l-104 -207h64v58h52v-58h28v-50z" />
<glyph unicode="&#xbd;" horiz-adv-x="581" d="M143 200h-54v240l-61 -54v61l61 53h54v-300zM413 500l-235 -500h-57l235 500h57zM549 0h-182v48l113 131q15 18 15 37q0 38 -37 38t-37 -38h-54q0 40 25.5 63.5t65.5 23.5t65.5 -23.5t25.5 -63.5q0 -32 -32 -69l-85 -99h117v-48z" />
<glyph unicode="&#xbe;" horiz-adv-x="593" d="M223 286q0 -42 -27.5 -65.5t-67.5 -23.5t-68 22t-28 66h54q0 -19 12 -29.5t30 -10.5t29.5 11.5t11.5 31.5q0 19 -11 30.5t-32 11.5h-8v46h8q19 0 29 11t10 28q0 19 -11 29t-27 10q-35 0 -38 -36h-53q1 39 26.5 62t64.5 23q40 0 65.5 -24t25.5 -62q0 -45 -35 -62 q40 -22 40 -69zM448 500l-235 -500h-57l235 500h57zM565 43h-29v-43h-51v43h-122v50l103 207h59l-104 -207h64v58h51v-58h29v-50z" />
<glyph unicode="&#xbf;" horiz-adv-x="323" d="M299 -74q-38 -102 -137 -102q-57 0 -97 36t-40 99q0 31 14.5 58.5t35 48.5t41.5 42t35.5 47t14.5 54v40h45v-60q0 -28 -20.5 -59t-45 -54.5t-45 -58t-20.5 -68.5q0 -38 23 -59t60 -21q64 0 94 78zM227 357h-72v75h72v-75z" />
<glyph unicode="&#xc0;" horiz-adv-x="507" d="M354 241l-99 313h-2l-99 -313h200zM486 0h-59l-60 196h-227l-61 -196h-58l191 599h84zM304 625h-43l-113 115h64z" />
<glyph unicode="&#xc1;" horiz-adv-x="507" d="M354 241l-99 313h-2l-99 -313h200zM486 0h-59l-60 196h-227l-61 -196h-58l191 599h84zM355 740l-113 -115h-43l92 115h64z" />
<glyph unicode="&#xc2;" horiz-adv-x="507" d="M354 241l-99 313h-2l-99 -313h200zM486 0h-59l-60 196h-227l-61 -196h-58l191 599h84zM374 625h-54l-69 84l-68 -84h-54l94 115h57z" />
<glyph unicode="&#xc3;" horiz-adv-x="507" d="M354 241l-99 313h-2l-99 -313h200zM486 0h-59l-60 196h-227l-61 -196h-58l191 599h84zM382 719q-15 -81 -74 -81q-16 0 -60 19t-56 19q-33 0 -39 -42h-32q3 31 23 56t50 25q20 0 62 -19q40 -18 57 -18q15 0 24.5 12t12.5 29h32z" />
<glyph unicode="&#xc4;" horiz-adv-x="507" d="M354 241l-99 313h-2l-99 -313h200zM486 0h-59l-60 196h-227l-61 -196h-58l191 599h84zM214 633h-55v78h55v-78zM344 633h-55v78h55v-78z" />
<glyph unicode="&#xc5;" horiz-adv-x="507" d="M354 241l-99 313h-2l-99 -313h200zM306 705q0 22 -16 38t-39 16q-22 0 -38 -16t-16 -38q0 -23 16 -39t38 -16q23 0 39 16t16 39zM486 0h-59l-60 196h-227l-61 -196h-58l191 599h84zM334 705q0 -35 -24.5 -59t-58.5 -24t-58.5 24t-24.5 59q0 34 25 58.5t58 24.5 q34 0 58.5 -24.5t24.5 -58.5z" />
<glyph unicode="&#xc6;" horiz-adv-x="784" d="M398 241v312h-15l-175 -312h190zM750 0h-352v196h-217l-105 -196h-61l334 599h386v-45h-283v-220h202v-45h-202v-244h298v-45z" />
<glyph unicode="&#xc7;" horiz-adv-x="507" d="M334 -108q0 -30 -27.5 -47.5t-59.5 -17.5q-45 0 -79 17l11 30q36 -13 49 -13q55 0 55 34q0 16 -11 25t-26 9q-19 0 -37 -8l-12 11l50 68h31l-36 -42l2 -1q13 5 26 5q30 0 47 -19t17 -51zM474 173q-37 -181 -203 -181q-108 0 -169.5 83.5t-61.5 224.5t61.5 224.5 t169.5 83.5q76 0 123.5 -47.5t67.5 -126.5l-50 -11q-41 140 -146 140q-85 0 -128 -73t-43 -190q0 -118 43.5 -190.5t132.5 -72.5q67 0 100.5 39t50.5 107z" />
<glyph unicode="&#xc8;" horiz-adv-x="461" d="M441 0h-358v599h342v-45h-287v-220h206v-45h-206v-244h303v-45zM308 625h-42l-114 115h64z" />
<glyph unicode="&#xc9;" horiz-adv-x="461" d="M441 0h-358v599h342v-45h-287v-220h206v-45h-206v-244h303v-45zM359 740l-113 -115h-43l92 115h64z" />
<glyph unicode="&#xca;" horiz-adv-x="461" d="M441 0h-358v599h342v-45h-287v-220h206v-45h-206v-244h303v-45zM378 625h-54l-68 84l-68 -84h-55l94 115h57z" />
<glyph unicode="&#xcb;" horiz-adv-x="461" d="M441 0h-358v599h342v-45h-287v-220h206v-45h-206v-244h303v-45zM218 633h-54v78h54v-78zM348 633h-55v78h55v-78z" />
<glyph unicode="&#xcc;" horiz-adv-x="231" d="M143 0h-55v599h55v-599zM162 625h-42l-114 115h64z" />
<glyph unicode="&#xcd;" horiz-adv-x="231" d="M143 0h-55v599h55v-599zM213 740l-113 -115h-43l92 115h64z" />
<glyph unicode="&#xce;" horiz-adv-x="231" d="M143 0h-55v599h55v-599zM232 625h-54l-68 84l-68 -84h-55l94 115h57z" />
<glyph unicode="&#xcf;" horiz-adv-x="231" d="M143 0h-55v599h55v-599zM72 633h-55v78h55v-78zM202 633h-55v78h55v-78z" />
<glyph unicode="&#xd0;" horiz-adv-x="554" d="M458 300q0 122 -52.5 188t-151.5 66h-116v-220h162v-45h-162v-244h116q99 0 151.5 66.5t52.5 188.5zM513 300q0 -62 -15 -115t-45.5 -95t-81.5 -66t-119 -24h-169v289h-75v45h75v265h169q67 0 118.5 -24t82 -66t45.5 -94.5t15 -114.5z" />
<glyph unicode="&#xd1;" horiz-adv-x="599" d="M516 0h-56l-321 554h-1v-554h-55v599h92l285 -499h1v499h55v-599zM430 719q-15 -81 -74 -81q-16 0 -60 19q-42 19 -56 19q-33 0 -39 -42h-32q3 31 23 56t50 25q20 0 62 -19q40 -18 57 -18q15 0 24.5 12t12.5 29h32z" />
<glyph unicode="&#xd2;" horiz-adv-x="554" d="M458 300q0 125 -49 194t-133 69t-132.5 -69t-48.5 -194t48.5 -194t132.5 -69t133 69t49 194zM513 300q0 -136 -63 -222t-174 -86q-110 0 -173 86t-63 222t63 222t173 86q111 0 174 -86t63 -222zM330 625h-43l-114 115h64z" />
<glyph unicode="&#xd3;" horiz-adv-x="554" d="M458 300q0 125 -49 194t-133 69t-132.5 -69t-48.5 -194t48.5 -194t132.5 -69t133 69t49 194zM513 300q0 -136 -63 -222t-174 -86q-110 0 -173 86t-63 222t63 222t173 86q111 0 174 -86t63 -222zM381 740l-114 -115h-42l92 115h64z" />
<glyph unicode="&#xd4;" horiz-adv-x="554" d="M458 300q0 125 -49 194t-133 69t-132.5 -69t-48.5 -194t48.5 -194t132.5 -69t133 69t49 194zM513 300q0 -136 -63 -222t-174 -86q-110 0 -173 86t-63 222t63 222t173 86q111 0 174 -86t63 -222zM400 625h-55l-68 84l-68 -84h-55l95 115h56z" />
<glyph unicode="&#xd5;" horiz-adv-x="554" d="M458 300q0 125 -49 194t-133 69t-132.5 -69t-48.5 -194t48.5 -194t132.5 -69t133 69t49 194zM513 300q0 -136 -63 -222t-174 -86q-110 0 -173 86t-63 222t63 222t173 86q111 0 174 -86t63 -222zM408 719q-15 -81 -74 -81q-16 0 -60 19t-57 19q-31 0 -39 -42h-31 q2 31 22.5 56t50.5 25q19 0 61 -19q42 -18 58 -18q15 0 24.5 12t12.5 29h32z" />
<glyph unicode="&#xd6;" horiz-adv-x="554" d="M458 300q0 125 -49 194t-133 69t-132.5 -69t-48.5 -194t48.5 -194t132.5 -69t133 69t49 194zM513 300q0 -136 -63 -222t-174 -86q-110 0 -173 86t-63 222t63 222t173 86q111 0 174 -86t63 -222zM240 633h-55v78h55v-78zM369 633h-54v78h54v-78z" />
<glyph unicode="&#xd7;" horiz-adv-x="560" d="M463 368l-141 -139l141 -140l-42 -41l-142 138l-140 -138l-42 41l141 140l-142 139l42 41l142 -139l141 140z" />
<glyph unicode="&#xd8;" horiz-adv-x="554" d="M458 300q0 115 -41 179l-253 -397q42 -45 112 -45q84 0 133 69t49 194zM389 516q-44 47 -113 47q-84 0 -132.5 -69t-48.5 -194q0 -112 40 -180zM520 639l-73 -114q66 -83 66 -225q0 -136 -63 -222t-174 -86q-81 0 -138 49l-52 -81h-52l72 114q-66 82 -66 226 q0 136 63 222t173 86q80 0 140 -50l51 81h53z" />
<glyph unicode="&#xd9;" horiz-adv-x="599" d="M516 196q0 -204 -216 -204q-217 0 -217 204v403h55v-408q0 -84 39.5 -119t122.5 -35q82 0 121.5 35t39.5 119v408h55v-403zM348 625h-43l-113 115h64z" />
<glyph unicode="&#xda;" horiz-adv-x="599" d="M516 196q0 -204 -216 -204q-217 0 -217 204v403h55v-408q0 -84 39.5 -119t122.5 -35q82 0 121.5 35t39.5 119v408h55v-403zM399 740l-113 -115h-43l92 115h64z" />
<glyph unicode="&#xdb;" horiz-adv-x="599" d="M516 196q0 -204 -216 -204q-217 0 -217 204v403h55v-408q0 -84 39.5 -119t122.5 -35q82 0 121.5 35t39.5 119v408h55v-403zM418 625h-54l-69 84l-68 -84h-54l94 115h57z" />
<glyph unicode="&#xdc;" horiz-adv-x="599" d="M516 196q0 -204 -216 -204q-217 0 -217 204v403h55v-408q0 -84 39.5 -119t122.5 -35q82 0 121.5 35t39.5 119v408h55v-403zM258 633h-55v78h55v-78zM388 633h-55v78h55v-78z" />
<glyph unicode="&#xdd;" horiz-adv-x="461" d="M445 599l-190 -345v-254h-55v254l-183 345h61l148 -296l157 296h62zM334 740l-113 -115h-43l93 115h63z" />
<glyph unicode="&#xde;" horiz-adv-x="507" d="M412 308q0 122 -148 122h-126v-244h126q148 0 148 122zM466 308q0 -79 -49.5 -123t-152.5 -44h-126v-141h-55v599h55v-124h126q103 0 152.5 -44t49.5 -123z" />
<glyph unicode="&#xdf;" horiz-adv-x="415" d="M389 167q0 -81 -37 -128t-105 -47q-44 0 -76 19l17 37q32 -16 62 -16q42 0 65.5 34.5t23.5 94.5q0 73 -37.5 105.5t-113.5 32.5v40q57 1 85.5 28t28.5 86q0 106 -100 106q-48 0 -68.5 -33t-20.5 -81v-445h-50v442q0 73 37 115t109 42q63 0 103 -42t40 -105 q0 -88 -76 -125q55 -17 84 -59t29 -101z" />
<glyph unicode="&#xe0;" horiz-adv-x="415" d="M295 103v141q-95 -21 -145.5 -44t-64.5 -43.5t-14 -51.5q0 -34 21.5 -53.5t56.5 -19.5t74.5 19t71.5 52zM345 0h-48v52q-41 -32 -75 -46t-82 -14q-52 0 -85 30t-33 83q0 22 4 39.5t14.5 32.5t20.5 25.5t32 21t38 17t48.5 15t54 13.5l64.5 15v30q0 44 -22.5 65t-76.5 21 q-77 0 -125 -78l-33 20q52 98 160 98q74 0 109 -32t35 -103v-305zM260 480h-43l-113 114h64z" />
<glyph unicode="&#xe1;" horiz-adv-x="415" d="M295 103v141q-95 -21 -145.5 -44t-64.5 -43.5t-14 -51.5q0 -34 21.5 -53.5t56.5 -19.5t74.5 19t71.5 52zM345 0h-48v52q-41 -32 -75 -46t-82 -14q-52 0 -85 30t-33 83q0 22 4 39.5t14.5 32.5t20.5 25.5t32 21t38 17t48.5 15t54 13.5l64.5 15v30q0 44 -22.5 65t-76.5 21 q-77 0 -125 -78l-33 20q52 98 160 98q74 0 109 -32t35 -103v-305zM311 594l-113 -114h-43l92 114h64z" />
<glyph unicode="&#xe2;" horiz-adv-x="415" d="M295 103v141q-95 -21 -145.5 -44t-64.5 -43.5t-14 -51.5q0 -34 21.5 -53.5t56.5 -19.5t74.5 19t71.5 52zM345 0h-48v52q-41 -32 -75 -46t-82 -14q-52 0 -85 30t-33 83q0 22 4 39.5t14.5 32.5t20.5 25.5t32 21t38 17t48.5 15t54 13.5l64.5 15v30q0 44 -22.5 65t-76.5 21 q-77 0 -125 -78l-33 20q52 98 160 98q74 0 109 -32t35 -103v-305zM330 480h-54l-68 84l-69 -84h-54l94 114h57z" />
<glyph unicode="&#xe3;" horiz-adv-x="415" d="M295 103v141q-95 -21 -145.5 -44t-64.5 -43.5t-14 -51.5q0 -34 21.5 -53.5t56.5 -19.5t74.5 19t71.5 52zM345 0h-48v52q-41 -32 -75 -46t-82 -14q-52 0 -85 30t-33 83q0 22 4 39.5t14.5 32.5t20.5 25.5t32 21t38 17t48.5 15t54 13.5l64.5 15v30q0 44 -22.5 65t-76.5 21 q-77 0 -125 -78l-33 20q52 98 160 98q74 0 109 -32t35 -103v-305zM338 574q-15 -81 -74 -81q-16 0 -60 19q-42 18 -56 18q-33 0 -39 -41h-32q3 31 23 55.5t50 24.5q22 0 62 -18t57 -18q15 0 24.5 12t12.5 29h32z" />
<glyph unicode="&#xe4;" horiz-adv-x="415" d="M295 103v141q-95 -21 -145.5 -44t-64.5 -43.5t-14 -51.5q0 -34 21.5 -53.5t56.5 -19.5t74.5 19t71.5 52zM345 0h-48v52q-41 -32 -75 -46t-82 -14q-52 0 -85 30t-33 83q0 22 4 39.5t14.5 32.5t20.5 25.5t32 21t38 17t48.5 15t54 13.5l64.5 15v30q0 44 -22.5 65t-76.5 21 q-77 0 -125 -78l-33 20q52 98 160 98q74 0 109 -32t35 -103v-305zM170 488h-55v78h55v-78zM300 488h-55v78h55v-78z" />
<glyph unicode="&#xe5;" horiz-adv-x="415" d="M295 103v141q-95 -21 -145.5 -44t-64.5 -43.5t-14 -51.5q0 -34 21.5 -53.5t56.5 -19.5t74.5 19t71.5 52zM262 559q0 23 -16 39t-38 16q-23 0 -39 -16t-16 -39q0 -22 16 -38t39 -16q22 0 38 16t16 38zM345 0h-48v52q-41 -32 -75 -46t-82 -14q-52 0 -85 30t-33 83 q0 22 4 39.5t14.5 32.5t20.5 25.5t32 21t38 17t48.5 15t54 13.5l64.5 15v30q0 44 -22.5 65t-76.5 21q-77 0 -125 -78l-33 20q52 98 160 98q74 0 109 -32t35 -103v-305zM291 559q0 -34 -25 -58.5t-58 -24.5q-34 0 -58.5 24.5t-24.5 58.5q0 35 24.5 59t58.5 24t58.5 -24 t24.5 -59z" />
<glyph unicode="&#xe6;" horiz-adv-x="646" d="M281 103v141q-88 -21 -135.5 -44t-61 -43.5t-13.5 -51.5q0 -34 21.5 -53.5t56.5 -19.5q36 0 73.5 19.5t58.5 51.5zM561 254q-16 146 -114 146q-54 0 -83.5 -41t-33.5 -105h231zM616 97q-36 -58 -73.5 -81.5t-97.5 -23.5q-84 0 -138 73q-58 -73 -167 -73q-52 0 -85 30 t-33 83q0 19 4 35.5t9 29.5t18.5 25t22 19.5t31 17t34.5 14t42.5 13t45 12.5t52.5 13v30q0 37 -22.5 61.5t-69.5 24.5q-84 0 -113 -80l-37 22q41 98 147 98q97 0 131 -71q48 71 131 71q84 0 123.5 -60t39.5 -166h-281q0 -81 28.5 -131.5t90.5 -50.5q42 0 68 18t58 69z" />
<glyph unicode="&#xe7;" horiz-adv-x="415" d="M282 -108q0 -30 -27.5 -47.5t-59.5 -17.5q-46 0 -80 17l12 30q34 -13 49 -13q55 0 55 34q0 16 -11 25t-27 9q-18 0 -36 -8l-13 11l50 68h32l-36 -42l2 -1q13 5 25 5q30 0 47.5 -19t17.5 -51zM385 102q-65 -110 -169 -110q-89 0 -137.5 61.5t-48.5 162.5q0 108 50.5 166 t135.5 58q115 0 158 -117l-46 -13q-41 90 -112 90q-136 0 -136 -184q0 -84 36 -134t100 -50q43 0 71.5 21.5t57.5 67.5z" />
<glyph unicode="&#xe8;" horiz-adv-x="415" d="M330 254q-16 145 -124 146q-41 0 -71 -25t-42 -57t-13 -64h250zM385 97q-35 -58 -72.5 -81.5t-98.5 -23.5q-87 0 -135.5 56.5t-48.5 167.5q0 101 48 162.5t130 61.5q85 0 128.5 -61t43.5 -165h-300q0 -80 34.5 -131t103.5 -51q42 0 68 18t58 69zM260 480h-43l-113 114h64 z" />
<glyph unicode="&#xe9;" horiz-adv-x="415" d="M330 254q-16 145 -124 146q-41 0 -71 -25t-42 -57t-13 -64h250zM385 97q-35 -58 -72.5 -81.5t-98.5 -23.5q-87 0 -135.5 56.5t-48.5 167.5q0 101 48 162.5t130 61.5q85 0 128.5 -61t43.5 -165h-300q0 -80 34.5 -131t103.5 -51q42 0 68 18t58 69zM311 594l-113 -114h-43 l92 114h64z" />
<glyph unicode="&#xea;" horiz-adv-x="415" d="M330 254q-16 145 -124 146q-41 0 -71 -25t-42 -57t-13 -64h250zM385 97q-35 -58 -72.5 -81.5t-98.5 -23.5q-87 0 -135.5 56.5t-48.5 167.5q0 101 48 162.5t130 61.5q85 0 128.5 -61t43.5 -165h-300q0 -80 34.5 -131t103.5 -51q42 0 68 18t58 69zM330 480h-54l-68 84 l-69 -84h-54l94 114h57z" />
<glyph unicode="&#xeb;" horiz-adv-x="415" d="M330 254q-16 145 -124 146q-41 0 -71 -25t-42 -57t-13 -64h250zM385 97q-35 -58 -72.5 -81.5t-98.5 -23.5q-87 0 -135.5 56.5t-48.5 167.5q0 101 48 162.5t130 61.5q85 0 128.5 -61t43.5 -165h-300q0 -80 34.5 -131t103.5 -51q42 0 68 18t58 69zM170 488h-55v78h55v-78z M300 488h-55v78h55v-78z" />
<glyph unicode="&#xec;" horiz-adv-x="184" d="M117 0h-50v432h50v-432zM144 480h-42l-114 114h64z" />
<glyph unicode="&#xed;" horiz-adv-x="184" d="M117 0h-50v432h50v-432zM196 594l-114 -114h-42l92 114h64z" />
<glyph unicode="&#xee;" horiz-adv-x="184" d="M117 0h-50v432h50v-432zM215 480h-55l-68 84l-68 -84h-55l95 114h56z" />
<glyph unicode="&#xef;" horiz-adv-x="184" d="M117 0h-50v432h50v-432zM55 488h-55v78h55v-78zM184 488h-55v78h55v-78z" />
<glyph unicode="&#xf0;" horiz-adv-x="415" d="M335 216q0 184 -127 184q-128 0 -128 -184t128 -184q127 0 127 184zM385 216q0 -98 -42 -161t-135 -63q-94 0 -136 63t-42 161t42 161t136 63q46 0 82 -18l1 1q-22 42 -56 81l-85 -44l-23 33l77 41q-27 24 -60 44l44 21q33 -21 59 -44l84 44l23 -33l-77 -41 q108 -116 108 -309z" />
<glyph unicode="&#xf1;" horiz-adv-x="461" d="M393 0h-49v290q0 56 -20 83t-68 27q-8 0 -15.5 -1t-13.5 -2.5t-14 -5t-12.5 -5.5t-13 -8.5t-12.5 -9t-13.5 -11t-13 -11.5t-15 -13.5t-15.5 -14.5v-318h-50v432h50v-68q38 39 71 57.5t77 18.5q127 0 127 -145v-295zM355 574q-13 -81 -74 -81q-17 0 -59 19q-42 18 -57 18 q-33 0 -39 -41h-31q2 31 22.5 55.5t50.5 24.5q21 0 61 -18q42 -18 57 -18q30 0 38 41h31z" />
<glyph unicode="&#xf2;" horiz-adv-x="415" d="M335 216q0 184 -127 184q-128 0 -128 -184t128 -184q127 0 127 184zM385 216q0 -98 -42 -161t-135 -63q-94 0 -136 63t-42 161t42 161t136 63q93 0 135 -63t42 -161zM256 480h-43l-113 114h64z" />
<glyph unicode="&#xf3;" horiz-adv-x="415" d="M335 216q0 184 -127 184q-128 0 -128 -184t128 -184q127 0 127 184zM385 216q0 -98 -42 -161t-135 -63q-94 0 -136 63t-42 161t42 161t136 63q93 0 135 -63t42 -161zM307 594l-114 -114h-42l92 114h64z" />
<glyph unicode="&#xf4;" horiz-adv-x="415" d="M335 216q0 184 -127 184q-128 0 -128 -184t128 -184q127 0 127 184zM385 216q0 -98 -42 -161t-135 -63q-94 0 -136 63t-42 161t42 161t136 63q93 0 135 -63t42 -161zM326 480h-55l-68 84l-68 -84h-54l94 114h57z" />
<glyph unicode="&#xf5;" horiz-adv-x="415" d="M335 216q0 184 -127 184q-128 0 -128 -184t128 -184q127 0 127 184zM385 216q0 -98 -42 -161t-135 -63q-94 0 -136 63t-42 161t42 161t136 63q93 0 135 -63t42 -161zM334 574q-15 -81 -74 -81q-16 0 -60 19q-42 18 -56 18q-33 0 -39 -41h-32q2 31 22.5 55.5t50.5 24.5 q22 0 62 -18t57 -18q15 0 24.5 12t12.5 29h32z" />
<glyph unicode="&#xf6;" horiz-adv-x="415" d="M335 216q0 184 -127 184q-128 0 -128 -184t128 -184q127 0 127 184zM385 216q0 -98 -42 -161t-135 -63q-94 0 -136 63t-42 161t42 161t136 63q93 0 135 -63t42 -161zM166 488h-55v78h55v-78zM295 488h-54v78h54v-78z" />
<glyph unicode="&#xf7;" horiz-adv-x="498" d="M296 36q0 -20 -14 -34t-33 -14t-33 14t-14 34q0 19 14 33t33 14t33 -14t14 -33zM465 193h-432v45h432v-45zM296 396q0 -20 -14 -33.5t-33 -13.5t-33 13.5t-14 33.5t14 33.5t33 13.5t33 -13.5t14 -33.5z" />
<glyph unicode="&#xf8;" horiz-adv-x="415" d="M335 216q0 84 -25 127l-177 -287q29 -24 75 -24q127 0 127 184zM283 375q-29 25 -75 25q-128 0 -128 -184q0 -83 26 -128zM405 498l-69 -112q49 -57 49 -170q0 -98 -42 -161t-135 -63q-60 0 -98 27l-52 -85h-46l68 111q-50 57 -50 171q0 98 42 161t136 63q59 0 97 -27 l53 85h47z" />
<glyph unicode="&#xf9;" horiz-adv-x="461" d="M393 0h-49v68q-39 -40 -71.5 -58t-76.5 -18q-128 0 -128 145v295h50v-290q0 -56 20 -83t68 -27q8 0 15.5 1t13.5 2.5t14 5t12.5 5.5t13 8.5t12.5 9t13.5 11t13 11.5t15 13.5t15.5 14.5v318h49v-432zM283 480h-42l-114 114h64z" />
<glyph unicode="&#xfa;" horiz-adv-x="461" d="M393 0h-49v68q-39 -40 -71.5 -58t-76.5 -18q-128 0 -128 145v295h50v-290q0 -56 20 -83t68 -27q8 0 15.5 1t13.5 2.5t14 5t12.5 5.5t13 8.5t12.5 9t13.5 11t13 11.5t15 13.5t15.5 14.5v318h49v-432zM334 594l-113 -114h-43l93 114h63z" />
<glyph unicode="&#xfb;" horiz-adv-x="461" d="M393 0h-49v68q-39 -40 -71.5 -58t-76.5 -18q-128 0 -128 145v295h50v-290q0 -56 20 -83t68 -27q8 0 15.5 1t13.5 2.5t14 5t12.5 5.5t13 8.5t12.5 9t13.5 11t13 11.5t15 13.5t15.5 14.5v318h49v-432zM354 480h-55l-68 84l-68 -84h-55l95 114h56z" />
<glyph unicode="&#xfc;" horiz-adv-x="461" d="M393 0h-49v68q-39 -40 -71.5 -58t-76.5 -18q-128 0 -128 145v295h50v-290q0 -56 20 -83t68 -27q8 0 15.5 1t13.5 2.5t14 5t12.5 5.5t13 8.5t12.5 9t13.5 11t13 11.5t15 13.5t15.5 14.5v318h49v-432zM193 488h-54v78h54v-78zM323 488h-55v78h55v-78z" />
<glyph unicode="&#xfd;" horiz-adv-x="369" d="M359 432l-161 -463q-24 -67 -53 -94.5t-85 -27.5q-27 0 -47 5v41q45 -6 50 -6q65 0 97 120l-150 425h55l118 -351h2l120 351h54zM288 594l-114 -114h-42l92 114h64z" />
<glyph unicode="&#xfe;" horiz-adv-x="461" d="M382 222q0 73 -32.5 125.5t-93.5 52.5q-37 0 -64 -18.5t-66 -60.5v-212q15 -25 51.5 -51t70.5 -26q66 0 100 49.5t34 140.5zM432 213q0 -109 -46 -165t-125 -56q-42 0 -72 15t-63 49v-209h-50v752h50v-234h2q51 75 130 75q80 0 127 -66.5t47 -160.5z" />
<glyph unicode="&#xff;" horiz-adv-x="369" d="M359 432l-161 -463q-24 -67 -53 -94.5t-85 -27.5q-27 0 -47 5v41q45 -6 50 -6q65 0 97 120l-150 425h55l118 -351h2l120 351h54zM147 488h-55v78h55v-78zM276 488h-54v78h54v-78z" />
<glyph unicode="&#x131;" horiz-adv-x="184" d="M117 0h-50v432h50v-432z" />
<glyph unicode="&#x141;" horiz-adv-x="415" d="M405 0h-322v269l-70 -28v51l70 28v279h55v-256l141 56v-51l-141 -57v-246h267v-45z" />
<glyph unicode="&#x142;" horiz-adv-x="184" d="M183 337l-66 -34v-303h-50v277l-66 -35v53l66 35v269h50v-243l66 34v-53z" />
<glyph unicode="&#x152;" horiz-adv-x="830" d="M443 120v360q0 83 -118 83q-114 0 -172 -71t-58 -192q0 -263 230 -263q118 0 118 83zM797 0h-336q-29 0 -82 -4t-72 -4q-138 0 -202.5 82t-64.5 226q0 133 70 220.5t197 87.5q25 0 79.5 -4.5t71.5 -4.5h323v-45h-283v-220h203v-45h-203v-244h299v-45z" />
<glyph unicode="&#x153;" horiz-adv-x="691" d="M324 216q0 184 -120 184q-124 0 -124 -184t124 -184q120 0 120 184zM607 254q-16 146 -118 146q-56 0 -84 -40t-31 -106h233zM662 97q-36 -58 -73.5 -81.5t-97.5 -23.5q-101 0 -146 94q-41 -94 -141 -94q-91 0 -132.5 63t-41.5 161t41.5 161t132.5 63q104 0 143 -94 q16 40 51.5 67t91.5 27q83 0 125 -61t42 -165h-283q0 -182 121 -182q41 0 67.5 18t58.5 69z" />
<glyph unicode="&#x160;" horiz-adv-x="461" d="M422 150q0 -73 -52.5 -115.5t-129.5 -42.5q-86 0 -137 38.5t-76 121.5l50 16q17 -68 58.5 -99.5t112.5 -31.5q56 0 88 32.5t32 86.5q0 44 -33.5 72.5t-81 45t-95.5 34.5t-81.5 53.5t-33.5 90.5q0 69 46 112.5t127 43.5q71 0 121 -37.5t71 -106.5l-48 -14 q-36 113 -144 113q-54 0 -86 -29.5t-32 -81.5q0 -34 23 -58t99 -53q123 -46 162.5 -85t39.5 -106zM354 740l-95 -115h-56l-95 115h55l68 -84l68 84h55z" />
<glyph unicode="&#x161;" horiz-adv-x="369" d="M337 114q0 -56 -44 -89t-105 -33q-110 0 -167 87l36 26q30 -43 59.5 -58t74.5 -15q41 0 68.5 23.5t27.5 58.5q0 34 -26 54t-63.5 29.5t-75 20t-63.5 36.5t-26 68q0 58 39 88t98 30q101 0 149 -78l-38 -27q-49 65 -113 65q-38 0 -61.5 -19t-23.5 -56q0 -29 26 -46 t63.5 -26.5t75 -22t63.5 -41.5t26 -75zM307 594l-95 -114h-56l-95 114h55l68 -84l68 84h55z" />
<glyph unicode="&#x178;" horiz-adv-x="461" d="M445 599l-190 -345v-254h-55v254l-183 345h61l148 -296l157 296h62zM193 633h-54v78h54v-78zM323 633h-55v78h55v-78z" />
<glyph unicode="&#x17d;" horiz-adv-x="461" d="M423 0h-385v45l313 509h-287v45h355v-46l-313 -508h317v-45zM354 740l-95 -115h-56l-95 115h55l68 -84l68 84h55z" />
<glyph unicode="&#x17e;" horiz-adv-x="369" d="M343 0h-322v32l249 360h-229v40h295v-32l-249 -360h256v-40zM307 594l-95 -114h-56l-95 114h55l68 -84l68 84h55z" />
<glyph unicode="&#x192;" horiz-adv-x="461" d="M414 603l-7 -38q-13 3 -27 3q-24 0 -42.5 -10t-28.5 -23.5t-18 -38.5t-10.5 -42.5t-7 -48t-6.5 -44.5h106v-40h-110l-49 -330q-9 -63 -44.5 -103.5t-96.5 -40.5q-17 0 -32 3l5 45q20 -8 30 -8q44 0 64.5 36t31.5 109l42 289h-111v40h115q4 31 6.5 50t9.5 53t17 55t25 44 t37.5 34t51.5 11t49 -5z" />
<glyph unicode="&#x2c6;" horiz-adv-x="184" d="M215 480h-55l-68 84l-68 -84h-55l95 114h56z" />
<glyph unicode="&#x2c7;" horiz-adv-x="184" d="M215 594l-95 -114h-56l-95 114h55l68 -84l68 84h55z" />
<glyph unicode="&#x2ca;" />
<glyph unicode="&#x2d8;" horiz-adv-x="184" d="M212 588q-3 -48 -35.5 -76.5t-84.5 -28.5t-84 28.5t-35 76.5h31q14 -67 88 -67t88 67h32z" />
<glyph unicode="&#x2d9;" horiz-adv-x="184" d="M120 488h-55v78h55v-78z" />
<glyph unicode="&#x2da;" horiz-adv-x="184" d="M147 559q0 23 -16 39t-39 16t-39 -16t-16 -39q0 -22 16 -38t39 -16t39 16t16 38zM175 559q0 -34 -24.5 -58.5t-58.5 -24.5t-58.5 24.5t-24.5 58.5q0 35 24.5 59t58.5 24t58.5 -24t24.5 -59z" />
<glyph unicode="&#x2db;" horiz-adv-x="184" d="M198 -128q-69 -43 -118 -43q-78 0 -78 66q0 20 8 36.5t25.5 29t31 20.5t40.5 16t36 10.5t35 8.5v-8q-28 -11 -41 -17t-37 -19.5t-35.5 -31.5t-11.5 -39q0 -14 14.5 -26.5t32.5 -12.5q22 0 86 35z" />
<glyph unicode="&#x2dc;" horiz-adv-x="184" d="M222 574q-13 -81 -73 -81q-16 0 -60 19q-42 18 -57 18q-31 0 -39 -41h-31q2 31 22.5 55.5t50.5 24.5q21 0 61 -18q42 -18 58 -18q15 0 24.5 12t12.5 29h31z" />
<glyph unicode="&#x2dd;" horiz-adv-x="184" d="M134 594l-100 -114h-41l78 114h63zM250 594l-114 -114h-42l92 114h64z" />
<glyph unicode="&#x5b0;" horiz-adv-x="0" d="M30 -217v1q0 -13 -9 -21.5t-21 -8.5t-21 8.5t-9 20.5t8.5 20.5t21.5 8.5t21.5 -8.5t8.5 -20.5zM30 -121v1q0 -12 -8.5 -20.5t-21.5 -8.5t-21.5 8.5t-8.5 19.5q0 13 9 21.5t21 8.5t21 -8.5t9 -21.5z" />
<glyph unicode="&#x5b1;" horiz-adv-x="0" d="M-14 -217v1q0 -12 -9 -21t-20 -9q-12 0 -21 8.5t-9 20.5t8.5 20.5t21.5 8.5q11 0 20 -8.5t9 -20.5zM-88 -120h1q0 -12 -8.5 -20.5t-21.5 -8.5q-12 0 -20.5 8t-8.5 20q0 13 9 21.5t20 8.5q12 0 20.5 -8.5t8.5 -20.5zM29 -120h1q0 -12 -8.5 -20.5t-21.5 -8.5t-21.5 8.5 t-8.5 19.5q0 13 9 21.5t21 8.5t20.5 -8.5t8.5 -20.5zM146 -217v1q0 -12 -9 -21t-20 -9q-12 0 -21 8.5t-9 20.5t8.5 20.5t21.5 8.5q11 0 20 -8.5t9 -20.5zM146 -121v1q0 -12 -9 -20.5t-20 -8.5q-13 0 -21.5 8.5t-8.5 19.5q0 13 9 21.5t21 8.5q11 0 20 -8.5t9 -21.5z" />
<glyph unicode="&#x5b2;" horiz-adv-x="0" d="M31 -140h-180v40h180v-40zM149 -217v1q0 -13 -9 -21.5t-21 -8.5t-21 8.5t-9 20.5t8.5 20.5t21.5 8.5t21.5 -8.5t8.5 -20.5zM149 -121v1q0 -12 -8.5 -20.5t-21.5 -8.5t-21.5 8.5t-8.5 19.5q0 13 9 21.5t21 8.5t21 -8.5t9 -21.5z" />
<glyph unicode="&#x5b3;" horiz-adv-x="0" d="M32 -140h-69v-117h-41v117h-69v40h179v-40zM147 -217v1q0 -13 -9 -21.5t-21 -8.5t-21 8.5t-9 20.5t8.5 20.5t21.5 8.5t21.5 -8.5t8.5 -20.5zM147 -121v1q0 -12 -8.5 -20.5t-21.5 -8.5t-21.5 8.5t-8.5 19.5q0 13 9 21.5t21 8.5t21 -8.5t9 -21.5z" />
<glyph unicode="&#x5b4;" horiz-adv-x="0" d="M30 -121v1q0 -12 -8.5 -20.5t-21.5 -8.5t-21.5 8.5t-8.5 19.5q0 13 9 21.5t21 8.5t21 -8.5t9 -21.5z" />
<glyph unicode="&#x5b5;" horiz-adv-x="0" d="M-35 -120h1q0 -12 -9 -20.5t-20 -8.5q-13 0 -21.5 8.5t-8.5 19.5q0 13 9 21.5t21 8.5q11 0 19.5 -8.5t8.5 -20.5zM93 -121v1q0 -12 -8.5 -20.5t-21.5 -8.5q-12 0 -20.5 8t-8.5 20q0 13 9 21.5t20 8.5q12 0 21 -8.5t9 -21.5z" />
<glyph unicode="&#x5b6;" horiz-adv-x="0" d="M30 -222v1q0 -13 -9 -21.5t-21 -8.5t-21 8.5t-9 20.5t8.5 20.5t21.5 8.5t21.5 -8.5t8.5 -20.5zM-35 -120h1q0 -12 -9 -20.5t-20 -8.5q-13 0 -21.5 8.5t-8.5 19.5q0 13 9 21.5t21 8.5q11 0 19.5 -8.5t8.5 -20.5zM93 -121v1q0 -12 -8.5 -20.5t-21.5 -8.5q-12 0 -20.5 8 t-8.5 20q0 13 9 21.5t20 8.5q12 0 21 -8.5t9 -21.5z" />
<glyph unicode="&#x5b7;" horiz-adv-x="0" d="M110 -110h-220v40h220v-40z" />
<glyph unicode="&#x5b8;" horiz-adv-x="0" d="M110 -140h-89v-117h-41v117h-90v40h220v-40z" />
<glyph unicode="&#x5b9;" horiz-adv-x="0" d="M30 593q0 -13 -9 -21.5t-21 -8.5t-21 8.5t-9 20.5q0 13 9 21.5t21 8.5t21 -8.5t9 -20.5z" />
<glyph unicode="&#x5bb;" horiz-adv-x="0" d="M29 -120h1q0 -12 -8.5 -20.5t-21.5 -8.5t-21.5 8.5t-8.5 19.5q0 13 9 21.5t21 8.5t20.5 -8.5t8.5 -20.5zM129 -163h1q0 -13 -9 -21.5t-21 -8.5t-21 8.5t-9 20.5q0 13 9 21.5t21 8.5t20.5 -8.5t8.5 -20.5zM230 -207v1q0 -13 -9 -21.5t-21 -8.5t-21 8.5t-9 20.5t8.5 20.5 t21.5 8.5t21.5 -8.5t8.5 -20.5z" />
<glyph unicode="&#x5bc;" horiz-adv-x="0" d="M30 252q0 -13 -9 -21.5t-21 -8.5t-21 8.5t-9 20.5q0 13 9 21.5t21 8.5t21 -8.5t9 -20.5z" />
<glyph unicode="&#x5bd;" />
<glyph unicode="&#x5be;" horiz-adv-x="265" d="M215 498h-165v55h165v-55z" />
<glyph unicode="&#x5bf;" horiz-adv-x="0" d="M100 577h-200v40h200v-40z" />
<glyph unicode="&#x5c1;" horiz-adv-x="0" d="M30 593q0 -13 -9 -21.5t-21 -8.5t-21 8.5t-9 20.5q0 13 9 21.5t21 8.5t21 -8.5t9 -20.5z" />
<glyph unicode="&#x5c2;" horiz-adv-x="0" d="M30 593q0 -13 -9 -21.5t-21 -8.5t-21 8.5t-9 20.5q0 13 9 21.5t21 8.5t21 -8.5t9 -20.5z" />
<glyph unicode="&#x5d0;" horiz-adv-x="380" d="M330 296l-79 -78l76 -218h-69l-102 297l-41 -41v-256h-65v284l82 82l-65 187h69l91 -264l38 37v227h65v-257z" />
<glyph unicode="&#x5d1;" horiz-adv-x="345" d="M310 0h-270v55h164v443h-154v55h219v-498h41v-55z" />
<glyph unicode="&#x5d2;" horiz-adv-x="248" d="M228 0h-63l-23 203h-29l-24 -203h-64l30 256h81l-28 242h-56v55l110 1z" />
<glyph unicode="&#x5d3;" horiz-adv-x="325" d="M290 498h-41v-498h-65v498h-164v55h270v-55z" />
<glyph unicode="&#x5d4;" horiz-adv-x="370" d="M320 0h-65v498h-205v55h270v-553zM115 0h-65v312h65v-312z" />
<glyph unicode="&#x5d5;" horiz-adv-x="165" d="M115 0h-65v553h65v-553z" />
<glyph unicode="&#x5d6;" horiz-adv-x="235" d="M200 498h-33q-3 -6 -6.5 -16.5t-9.5 -41t-4 -57.5l27 -383h-65l-27 390q-1 18 3.5 45t9.5 45l5 18h-70v55h170v-55z" />
<glyph unicode="&#x5d7;" horiz-adv-x="370" d="M320 0h-65v498h-140v-498h-65v553h270v-553z" />
<glyph unicode="&#x5d8;" horiz-adv-x="370" d="M320 0h-270v553h65v-498h140v443h-71l8 55h95q13 0 23 -10.5t10 -24.5v-518z" />
<glyph unicode="&#x5d9;" horiz-adv-x="180" d="M140 200h-65v298h-50v55h115v-353z" />
<glyph unicode="&#x5da;" horiz-adv-x="314" d="M264 -100h-65v598h-169v55h234v-653z" />
<glyph unicode="&#x5db;" horiz-adv-x="329" d="M279 35q0 -14 -9.5 -24.5t-22.5 -10.5h-212v55h179v443h-179v55h244v-518z" />
<glyph unicode="&#x5dc;" horiz-adv-x="304" d="M264 88q0 -37 -24 -62.5t-59 -25.5h-106v55h124v443h-179v128h65v-73h179v-465z" />
<glyph unicode="&#x5dd;" horiz-adv-x="390" d="M340 0h-270v498h-40v55h310v-553zM275 55v443h-140v-443h140z" />
<glyph unicode="&#x5de;" horiz-adv-x="355" d="M310 0h-120v55h55v443h-111l-27 -498h-65l26 498h-33v55h98v-31l26 31h118q13 0 23 -10.5t10 -24.5v-518z" />
<glyph unicode="&#x5df;" horiz-adv-x="205" d="M155 -100h-65v598h-50v55h115v-653z" />
<glyph unicode="&#x5e0;" horiz-adv-x="234" d="M184 35q0 -14 -9.5 -24.5t-22.5 -10.5h-132v55h99v443h-49v55h114v-518z" />
<glyph unicode="&#x5e1;" horiz-adv-x="327" d="M302 553l-27 -509q-3 -44 -43 -44h-178l-29 553h277zM234 498h-140l22 -443h95z" />
<glyph unicode="&#x5e2;" horiz-adv-x="364" d="M339 553l-26 -510q-3 -43 -39 -43h-239v55h53l-26 498h65l26 -498h95l26 498h65z" />
<glyph unicode="&#x5e3;" horiz-adv-x="360" d="M310 -100h-65v598h-140v-265h-65v320h270v-653z" />
<glyph unicode="&#x5e4;" horiz-adv-x="370" d="M320 35q0 -14 -9.5 -24.5t-22.5 -10.5h-238v55h205v443h-140v-215h-65v270h270v-518z" />
<glyph unicode="&#x5e5;" horiz-adv-x="335" d="M310 387l-205 -219v-268h-65v653h65v-291l140 151v140h65v-166z" />
<glyph unicode="&#x5e6;" horiz-adv-x="307" d="M282 553l-31 -204l-55 -59l83 -220v-70h-254v55h189l-188 498h71l73 -196l20 22l27 174h65z" />
<glyph unicode="&#x5e7;" horiz-adv-x="360" d="M320 88q0 -37 -24 -62.5t-59 -25.5h-62v55h80v443h-205v55h270v-465zM115 -100h-65v414h65v-414z" />
<glyph unicode="&#x5e8;" horiz-adv-x="285" d="M235 0h-65v498h-150v55h132q36 0 59.5 -23t23.5 -53v-477z" />
<glyph unicode="&#x5e9;" horiz-adv-x="447" d="M422 553l-27 -502q-1 -28 -12.5 -39.5t-33.5 -11.5h-295l-29 553h65l14 -268h76l14 268h66l-18 -327h-135l9 -167h215l26 494h65z" />
<glyph unicode="&#x5ea;" horiz-adv-x="410" d="M360 0h-65v498h-140v-498h-115v55h50v443h-40v55h310v-553z" />
<glyph unicode="&#x5f3;" horiz-adv-x="155" d="M105 427l-55 -30v191h55v-161z" />
<glyph unicode="&#x5f4;" horiz-adv-x="250" d="M200 427l-55 -30v191h55v-161zM105 427l-55 -30v191h55v-161z" />
<glyph unicode="&#x2000;" horiz-adv-x="394" />
<glyph unicode="&#x2001;" horiz-adv-x="788" />
<glyph unicode="&#x2002;" horiz-adv-x="394" />
<glyph unicode="&#x2003;" horiz-adv-x="788" />
<glyph unicode="&#x2004;" horiz-adv-x="262" />
<glyph unicode="&#x2005;" horiz-adv-x="197" />
<glyph unicode="&#x2006;" horiz-adv-x="131" />
<glyph unicode="&#x2007;" horiz-adv-x="131" />
<glyph unicode="&#x2008;" horiz-adv-x="98" />
<glyph unicode="&#x2009;" horiz-adv-x="157" />
<glyph unicode="&#x200a;" horiz-adv-x="43" />
<glyph unicode="&#x2010;" horiz-adv-x="415" d="M365 261h-315v55h315v-55z" />
<glyph unicode="&#x2011;" horiz-adv-x="415" d="M365 261h-315v55h315v-55z" />
<glyph unicode="&#x2012;" horiz-adv-x="415" d="M365 261h-315v55h315v-55z" />
<glyph unicode="&#x2013;" horiz-adv-x="415" d="M365 261h-315v55h315v-55z" />
<glyph unicode="&#x2014;" horiz-adv-x="515" d="M465 296h-415v55h415v-55z" />
<glyph unicode="&#x2018;" horiz-adv-x="155" d="M105 400h-55v162l55 29v-191z" />
<glyph unicode="&#x2019;" horiz-adv-x="155" d="M105 447l-55 -30v171h55v-141z" />
<glyph unicode="&#x201a;" horiz-adv-x="184" d="M134 0l-52 -125h-32l48 125h-35v75h71v-75z" />
<glyph unicode="&#x201c;" horiz-adv-x="250" d="M200 400h-55v162l55 29v-191zM105 400h-55v162l55 29v-191z" />
<glyph unicode="&#x201d;" horiz-adv-x="250" d="M200 427l-55 -30v191h55v-161zM105 427l-55 -30v191h55v-161z" />
<glyph unicode="&#x201e;" horiz-adv-x="369" d="M149 0l-52 -125h-32l48 125h-35v75h71v-75zM288 0l-52 -125h-33l48 125h-34v75h71v-75z" />
<glyph unicode="&#x2020;" horiz-adv-x="509" d="M447 375h-163v-375h-61v375h-161v53h161v171h61v-171h163v-53z" />
<glyph unicode="&#x2021;" horiz-adv-x="509" d="M447 -13h-163v-172h-61v172h-161v53h161v335h-161v53h161v171h61v-171h163v-53h-163v-335h163v-53z" />
<glyph unicode="&#x2022;" horiz-adv-x="426" d="M351 285q0 -57 -40.5 -97.5t-97.5 -40.5t-97.5 40.5t-40.5 96.5q0 58 40.5 98.5t96.5 40.5q58 0 98.5 -40.5t40.5 -97.5z" />
<glyph unicode="&#x2026;" horiz-adv-x="830" d="M174 0h-71v75h71v-75zM451 0h-72v75h72v-75zM727 0h-71v75h71v-75z" />
<glyph unicode="&#x202f;" horiz-adv-x="157" />
<glyph unicode="&#x2030;" horiz-adv-x="840" d="M183 340v67q0 50 -44 50t-44 -50v-67q0 -50 44 -50t44 50zM496 93v67q0 51 -44 51t-44 -51v-67q0 -50 44 -50t44 50zM745 93v67q0 51 -44 51t-44 -51v-67q0 -50 44 -50t44 50zM237 338q0 -45 -27.5 -70.5t-70.5 -25.5t-70.5 25.5t-27.5 70.5v71q0 44 28 70t70 26t70 -26 t28 -70v-71zM442 500l-236 -500h-57l236 500h57zM551 91q0 -44 -28.5 -70t-70.5 -26t-70 26t-28 70v71q0 45 27.5 70.5t70.5 25.5t71 -26t28 -70v-71zM799 91q0 -44 -28 -70t-70 -26q-43 0 -71 26t-28 70v71q0 44 28 70t71 26t70.5 -25.5t27.5 -70.5v-71z" />
<glyph unicode="&#x2039;" horiz-adv-x="276" d="M208 88h-54l-101 129l101 127h54l-103 -127z" />
<glyph unicode="&#x203a;" horiz-adv-x="276" d="M223 214l-100 -126h-55l103 126l-103 130h55z" />
<glyph unicode="&#x205f;" horiz-adv-x="197" />
<glyph unicode="&#x20aa;" horiz-adv-x="568" d="M518 76q0 -30 -23.5 -53t-58.5 -23h-248v426h55v-371h220v498h55v-477zM380 128h-55v370h-220v-498h-55v553h330v-425z" />
<glyph unicode="&#x20ac;" horiz-adv-x="482" d="M432 146q-13 -71 -60 -110.5t-115 -39.5q-85 0 -128.5 51.5t-47.5 137.5h-48v35h47v70h-47v35h48q4 84 48 134.5t128 50.5q69 0 115.5 -39.5t59.5 -110.5h-54q-11 47 -42.5 74.5t-78.5 27.5q-114 0 -121 -137h156v-35h-158v-70h158v-35h-156q5 -141 121 -141 q47 0 79 27.5t43 74.5h53z" />
<glyph unicode="&#x2122;" horiz-adv-x="822" d="M310 563h-110v-306h-41v306h-114v36h265v-36zM730 257h-41v306h-2l-123 -306h-25l-124 306h-2v-306h-41v342h70l111 -272l107 272h70v-342z" />
<glyph unicode="&#x2212;" horiz-adv-x="415" d="M365 261h-315v55h315v-55z" />
<glyph unicode="&#x221a;" horiz-adv-x="674" d="M624 276q0 -119 -84 -203t-203 -84t-203 84t-84 203t84 203t203 84t203 -84t84 -203z" />
<glyph unicode="&#xe000;" horiz-adv-x="430" d="M0 430h430v-430h-430v430z" />
<glyph unicode="&#xfb01;" horiz-adv-x="415" d="M237 559q-27 9 -49 9q-59 0 -59 -69v-67h88v-40h-88v-392h-49v392h-72v40h72v61q0 115 103 115q12 0 54 -7v-42zM348 0h-50v432h50v-432zM348 526h-50v73h50v-73z" />
<glyph unicode="&#xfb02;" horiz-adv-x="415" d="M237 559q-27 9 -49 9q-59 0 -59 -69v-67h88v-40h-88v-392h-49v392h-72v40h72v61q0 115 103 115q12 0 54 -7v-42zM348 0h-50v599h50v-599z" />
<glyph unicode="&#xfb1f;" />
<glyph unicode="&#xfb2a;" horiz-adv-x="447" d="M422 553l-27 -502q-1 -28 -12.5 -39.5t-33.5 -11.5h-295l-29 553h65l14 -268h76l14 268h66l-18 -327h-135l9 -167h215l26 494h65zM425 613q0 -13 -8.5 -21.5t-20.5 -8.5q-13 0 -21.5 8.5t-8.5 20.5q0 13 8.5 21.5t20.5 8.5q13 0 21.5 -8.5t8.5 -20.5z" />
<glyph unicode="&#xfb2b;" horiz-adv-x="447" d="M422 553l-27 -502q-1 -28 -12.5 -39.5t-33.5 -11.5h-295l-29 553h65l14 -268h76l14 268h66l-18 -327h-135l9 -167h215l26 494h65zM85 613q0 -13 -8.5 -21.5t-20.5 -8.5q-13 0 -21.5 8.5t-8.5 20.5q0 13 8.5 21.5t20.5 8.5q13 0 21.5 -8.5t8.5 -20.5z" />
<glyph unicode="&#xfb35;" horiz-adv-x="165" d="M115 0h-65v553h65v-553zM26 302q0 12 -8.5 20.5t-21.5 8.5q-12 0 -20.5 -8.5t-8.5 -21.5q0 -11 8.5 -19.5t21.5 -8.5q12 0 20.5 8.5t8.5 20.5z" />
<glyph unicode="&#xfb4b;" horiz-adv-x="165" d="M115 0h-65v553h65v-553zM107 613q0 -13 -8.5 -21.5t-20.5 -8.5q-13 0 -21.5 8.5t-8.5 20.5q0 13 8.5 21.5t20.5 8.5q13 0 21.5 -8.5t8.5 -20.5z" />
<glyph horiz-adv-x="0" />
<glyph horiz-adv-x="235" />
<glyph />
<glyph />
<glyph />
<glyph />
<glyph />
<glyph />
<glyph />
<glyph />
<glyph />
<glyph horiz-adv-x="160" />
<glyph />
<glyph />
<glyph />
<glyph horiz-adv-x="160" />
<glyph />
<glyph />
<glyph />
<glyph />
<glyph />
<glyph />
<glyph />
<glyph />
<glyph />
<glyph />
<glyph />
<glyph />
<glyph />
<glyph />
<glyph />
<glyph />
<glyph />
<glyph />
<glyph />
<glyph />
<glyph />
<glyph />
<glyph />
<glyph />
<glyph />
<glyph />
<glyph />
<glyph />
<glyph />
<glyph />
<glyph />
<glyph />
<glyph />
<glyph />
<glyph />
<glyph />
<glyph />
<glyph />
<glyph />
<glyph />
<glyph />
<glyph />
<glyph />
<glyph />
<glyph />
<glyph />
<glyph />
<glyph />
<glyph />
<glyph />
<glyph />
<glyph horiz-adv-x="560" d="M329 19q0 13 -12 13t-12 -13q0 -14 12 -14t12 14zM104 -8h-8v30q0 3 -1 5t-3 3h-1h-14v-7h8v-8h-15v23h22q12 -4 12 -15v-31zM149 0h-38v30h-4v8h12v-31h22v15l-2 6l-9 -9l-6 5l14 14q11 -4 11 -15v-23zM175 0h-19v7h12v23h-8v8h15v-38zM197 0h-7v30h-8v8h15v-38zM239 23 v-23h-34v7h26v14l-5 9h-14v-7h8v-8h-15v23h22q12 -4 12 -15zM254 -8h-4v53h4v-53zM295 30h-23v-7h19v-8h-18v-15h-8v38h30v-8zM336 19q0 -8 -5.5 -14t-13.5 -6t-13.5 6t-5.5 14t5.5 13.5t13.5 5.5t13.5 -5.5t5.5 -13.5zM377 0h-7l-19 26v-26h-7v38h7l19 -27v27h7v-38z M417 30h-13v-30h-8v30h-13v8h34v-8zM452 0h-30v38h31v-8h-23v-7h19v-8h-19v-7h22v-8zM490 30h-23v-7h20v-8h-19v-15h-8v38h30v-8zM490 187l-47 -66l-289 -14l-37 -10l-19 -18l-28 9l28 75l56 64l308 16l-37 185l-56 61l-168 19l-15 -56l5 -28l47 -19h47l37 10l19 -112 l-84 -28l-56 19l-56 -10l-19 -19h-13l-15 19l28 29l28 8l-37 56l18 84l38 56l-47 28l-9 28l28 122l28 -10l9 -28l37 -18l174 -19l54 -56l43 -149v-228z" />
</font>
</defs>
</svg>
